<svg width="14" height="14" viewBox="0 0 14 14" fill="none" xmlns="http://www.w3.org/2000/svg">
<path d="M0 6.58915C0 6.09673 0.336329 5.69563 0.749218 5.69563H13.2508C13.6637 5.69563 14 6.09673 14 6.58915C14 8.88804 12.7859 10.8511 11.0824 11.6141L11.0332 12.0869C10.9785 12.6087 10.6066 13 10.1637 13H3.83361C3.39336 13 3.01875 12.6087 2.96408 12.0869L2.91486 11.6174C1.21406 10.8511 0 8.88804 0 6.58915Z" fill="#393129"/>
<path d="M2.85701 1C2.62558 1 2.43939 1.22204 2.43939 1.49802C2.43939 2.30523 2.84656 2.73062 3.11977 3.01493L3.13892 3.03565C3.42252 3.33034 3.55303 3.48802 3.55303 3.82215C3.55303 4.09813 3.73922 4.32015 3.97064 4.32015C4.20207 4.32015 4.38826 4.09813 4.38826 3.82215C4.38826 3.01493 3.98109 2.58953 3.70788 2.30523L3.68873 2.28449C3.40513 1.98982 3.27462 1.83212 3.27462 1.49802C3.27462 1.22204 3.08843 1 2.85701 1ZM5.22348 1.49802C5.22348 1.22204 5.0373 1 4.80587 1C4.57445 1 4.38826 1.22204 4.38826 1.49802C4.38826 2.30523 4.79542 2.73062 5.06864 3.01493L5.08778 3.03565C5.37139 3.33034 5.50189 3.48802 5.50189 3.82215C5.50189 4.09813 5.68808 4.32015 5.91951 4.32015C6.15093 4.32015 6.33712 4.09813 6.33712 3.82215C6.33712 3.01493 5.92995 2.58953 5.65674 2.30523L5.6376 2.28449C5.35399 1.98982 5.22348 1.83212 5.22348 1.49802Z" fill="#393129"/>
<path d="M11.9318 3.48219L10.3144 5.69563H11.9318L12.9394 3.9249C12.9394 3.9249 13.125 3.31619 12.6212 3.166C12.1705 3.03161 11.9318 3.48219 11.9318 3.48219Z" fill="#393129"/>
</svg>
