<svg width="360" height="360" viewBox="0 0 360 360" fill="none" xmlns="http://www.w3.org/2000/svg">
<path d="M48 167.724C48 158.908 54.3422 151.727 62.1281 151.727H297.872C305.658 151.727 312 158.908 312 167.724C312 208.882 289.106 244.027 256.983 257.688L256.055 266.153C255.023 275.494 248.011 282.5 239.658 282.5H120.291C111.989 282.5 104.925 275.494 103.894 266.153L102.966 257.747C70.8937 244.027 48 208.882 48 167.724Z" fill="#393129"/>
<path d="M101.875 77C97.5109 77 94 80.9752 94 85.9163C94 100.368 101.678 107.984 106.83 113.074L107.191 113.445C112.539 118.721 115 121.544 115 127.526C115 132.467 118.511 136.442 122.875 136.442C127.239 136.442 130.75 132.467 130.75 127.526C130.75 113.074 123.072 105.458 117.92 100.368L117.559 99.9967C112.211 94.7212 109.75 91.8977 109.75 85.9163C109.75 80.9752 106.239 77 101.875 77ZM146.5 85.9163C146.5 80.9752 142.989 77 138.625 77C134.261 77 130.75 80.9752 130.75 85.9163C130.75 100.368 138.428 107.984 143.58 113.074L143.941 113.445C149.289 118.721 151.75 121.544 151.75 127.526C151.75 132.467 155.261 136.442 159.625 136.442C163.989 136.442 167.5 132.467 167.5 127.526C167.5 113.074 159.822 105.458 154.67 100.368L154.309 99.9967C148.961 94.7212 146.5 91.8977 146.5 85.9163Z" fill="#393129"/>
<path d="M273 112.099L242.5 151.727L273 151.727L292 120.025C292 120.025 295.5 109.127 286 106.438C277.5 104.032 273 112.099 273 112.099Z" fill="#393129"/>
</svg>
