<svg width="24" height="24" viewBox="0 0 24 24" fill="none" xmlns="http://www.w3.org/2000/svg">
<path fill-rule="evenodd" clip-rule="evenodd" d="M9 13C10.3062 13 11.4175 13.8348 11.8293 15H19C19.5523 15 20 15.4477 20 16C20 16.5523 19.5523 17 19 17H11.8293C11.4175 18.1652 10.3062 19 9 19C7.69378 19 6.58254 18.1652 6.17071 17H5C4.44772 17 4 16.5523 4 16C4 15.4477 4.44772 15 5 15H6.17071C6.58254 13.8348 7.69378 13 9 13ZM9 17C9.55228 17 10 16.5523 10 16C10 15.4477 9.55228 15 9 15C8.44772 15 8 15.4477 8 16C8 16.5523 8.44772 17 9 17Z" fill="#393129"/>
<path fill-rule="evenodd" clip-rule="evenodd" d="M15 5C13.6938 5 12.5825 5.83481 12.1707 7H5C4.44771 7 4 7.44772 4 8C4 8.55228 4.44771 9 5 9H12.1707C12.5825 10.1652 13.6938 11 15 11C16.3062 11 17.4175 10.1652 17.8293 9H19C19.5523 9 20 8.55228 20 8C20 7.44772 19.5523 7 19 7H17.8293C17.4175 5.83481 16.3062 5 15 5ZM15 9C14.4477 9 14 8.55228 14 8C14 7.44772 14.4477 7 15 7C15.5523 7 16 7.44772 16 8C16 8.55228 15.5523 9 15 9Z" fill="#393129"/>
</svg>
