<svg width="36" height="36" viewBox="0 0 36 36" fill="none" xmlns="http://www.w3.org/2000/svg">
<path d="M11.7 3.00012H24.3C29.1 3.00012 33 6.90012 33 11.7001V24.3001C33 26.6075 32.0834 28.8204 30.4518 30.4519C28.8203 32.0835 26.6074 33.0001 24.3 33.0001H11.7C6.9 33.0001 3 29.1001 3 24.3001V11.7001C3 9.39274 3.9166 7.17986 5.54817 5.54829C7.17974 3.91673 9.39262 3.00012 11.7 3.00012ZM11.4 6.00012C9.96783 6.00012 8.59432 6.56905 7.58162 7.58175C6.56893 8.59444 6 9.96795 6 11.4001V24.6001C6 27.5851 8.415 30.0001 11.4 30.0001H24.6C26.0322 30.0001 27.4057 29.4312 28.4184 28.4185C29.4311 27.4058 30 26.0323 30 24.6001V11.4001C30 8.41512 27.585 6.00012 24.6 6.00012H11.4ZM25.875 8.25012C26.3723 8.25012 26.8492 8.44767 27.2008 8.7993C27.5525 9.15093 27.75 9.62784 27.75 10.1251C27.75 10.6224 27.5525 11.0993 27.2008 11.4509C26.8492 11.8026 26.3723 12.0001 25.875 12.0001C25.3777 12.0001 24.9008 11.8026 24.5492 11.4509C24.1975 11.0993 24 10.6224 24 10.1251C24 9.62784 24.1975 9.15093 24.5492 8.7993C24.9008 8.44767 25.3777 8.25012 25.875 8.25012ZM18 10.5001C19.9891 10.5001 21.8968 11.2903 23.3033 12.6968C24.7098 14.1033 25.5 16.011 25.5 18.0001C25.5 19.9892 24.7098 21.8969 23.3033 23.3034C21.8968 24.7099 19.9891 25.5001 18 25.5001C16.0109 25.5001 14.1032 24.7099 12.6967 23.3034C11.2902 21.8969 10.5 19.9892 10.5 18.0001C10.5 16.011 11.2902 14.1033 12.6967 12.6968C14.1032 11.2903 16.0109 10.5001 18 10.5001ZM18 13.5001C16.8065 13.5001 15.6619 13.9742 14.818 14.8181C13.9741 15.6621 13.5 16.8066 13.5 18.0001C13.5 19.1936 13.9741 20.3382 14.818 21.1821C15.6619 22.026 16.8065 22.5001 18 22.5001C19.1935 22.5001 20.3381 22.026 21.182 21.1821C22.0259 20.3382 22.5 19.1936 22.5 18.0001C22.5 16.8066 22.0259 15.6621 21.182 14.8181C20.3381 13.9742 19.1935 13.5001 18 13.5001Z" fill="#393129"/>
</svg>
