<svg width="36" height="36" viewBox="0 0 36 36" fill="none" xmlns="http://www.w3.org/2000/svg">
<path d="M27.9954 16.2602C27.995 16.4691 27.9117 16.6694 27.7638 16.8171C27.6159 16.9647 27.4154 17.0477 27.2064 17.0477H25.0134V18.4547H27.2079C27.3141 18.45 27.4202 18.4669 27.5197 18.5044C27.6192 18.5418 27.71 18.599 27.7868 18.6725C27.8636 18.7461 27.9247 18.8344 27.9665 18.9321C28.0082 19.0299 28.0298 19.1351 28.0298 19.2414C28.0298 19.3477 28.0082 19.4529 27.9665 19.5507C27.9247 19.6485 27.8636 19.7368 27.7868 19.8103C27.71 19.8838 27.6192 19.941 27.5197 19.9784C27.4202 20.0159 27.3141 20.0328 27.2079 20.0282H24.2244C24.0167 20.0266 23.818 19.9432 23.6714 19.796C23.5248 19.6489 23.4422 19.4499 23.4414 19.2422V13.2782C23.4414 12.8477 23.7939 12.4907 24.2289 12.4907H27.2109C27.4113 12.5034 27.5994 12.5921 27.7367 12.7387C27.874 12.8853 27.9502 13.0787 27.9498 13.2796C27.9494 13.4804 27.8725 13.6735 27.7346 13.8196C27.5968 13.9657 27.4084 14.0537 27.2079 14.0657H25.0134V15.4727H27.2079C27.6429 15.4727 27.9954 15.8282 27.9954 16.2602ZM21.8469 19.9877C21.7664 20.0131 21.6824 20.0257 21.5979 20.0252C21.4744 20.0279 21.3521 20.001 21.2412 19.9467C21.1303 19.8924 21.034 19.8123 20.9604 19.7132L17.9064 15.5672V19.2422C17.8914 19.4401 17.8022 19.6252 17.6566 19.7602C17.5109 19.8952 17.3197 19.9702 17.1212 19.9702C16.9226 19.9702 16.7314 19.8952 16.5858 19.7602C16.4401 19.6252 16.3509 19.4401 16.3359 19.2422V13.2782C16.3355 13.0707 16.4174 12.8717 16.5637 12.7246C16.7099 12.5775 16.9085 12.4944 17.1159 12.4937C17.3589 12.4937 17.5839 12.6227 17.7339 12.8102L20.8119 16.9727V13.2782C20.8119 12.8477 21.1644 12.4907 21.5994 12.4907C22.0299 12.4907 22.3869 12.8477 22.3869 13.2782V19.2422C22.3867 19.4074 22.3344 19.5684 22.2375 19.7022C22.1405 19.8361 22.0039 19.9359 21.8469 19.9877ZM14.4219 20.0282C14.2139 20.027 14.0149 19.9437 13.868 19.7965C13.7211 19.6493 13.6382 19.4501 13.6374 19.2422V13.2782C13.6374 12.8477 13.9899 12.4907 14.4249 12.4907C14.8584 12.4907 15.2109 12.8477 15.2109 13.2782V19.2422C15.2097 19.4508 15.1261 19.6505 14.9783 19.7977C14.8305 19.9449 14.6305 20.0278 14.4219 20.0282ZM12.1269 20.0282H9.14791C8.93967 20.027 8.74028 19.9438 8.59289 19.7967C8.4455 19.6496 8.36198 19.4504 8.36041 19.2422V13.2782C8.36041 12.8477 8.71741 12.4907 9.14791 12.4907C9.58291 12.4907 9.93541 12.8477 9.93541 13.2782V18.4532H12.1314C12.3403 18.4532 12.5406 18.5361 12.6883 18.6838C12.8359 18.8315 12.9189 19.0318 12.9189 19.2407C12.9189 19.4495 12.8359 19.6498 12.6883 19.7975C12.5406 19.9452 12.3403 20.0282 12.1314 20.0282M18.0039 3.85815C9.73441 3.85815 3.00391 9.32265 3.00391 16.0352C3.00391 22.0502 8.34091 27.0887 15.5484 28.0457C16.0359 28.1477 16.7019 28.3682 16.8699 28.7837C17.0199 29.1587 16.9689 29.7407 16.9179 30.1337L16.7124 31.4087C16.6569 31.7837 16.4124 32.8907 18.0234 32.2142C19.6374 31.5407 26.6694 27.1172 29.8194 23.4962C31.9704 21.1337 32.9994 18.7157 32.9994 16.0352C32.9994 9.32265 26.2674 3.85815 17.9994 3.85815" fill="#393129"/>
</svg>
