<svg width="360" height="360" viewBox="0 0 360 360" fill="none" xmlns="http://www.w3.org/2000/svg">
<path fill-rule="evenodd" clip-rule="evenodd" d="M41.7453 200.534C45.3411 200.534 48.4951 202.933 49.455 206.398L70.6512 282.917C71.6111 286.382 74.7651 288.781 78.3609 288.781H283.009C286.604 288.781 289.758 286.382 290.718 282.917L311.915 206.398C312.875 202.933 316.029 200.534 319.624 200.534H322C326.418 200.534 330 196.952 330 192.534V183.558C330 179.14 326.418 175.558 322 175.558L320.458 175.558H40.9121C40.9121 175.558 40.9121 175.558 40.9121 175.558V175.558C40.9121 175.558 40.9121 175.558 40.9121 175.558H34.6785C32.0947 175.558 30 177.653 30 180.237V192.534C30 196.952 33.5817 200.534 38 200.534H41.7453Z" fill="#393129"/>
<path fill-rule="evenodd" clip-rule="evenodd" d="M201.818 80C201.818 75.5817 198.236 72 193.818 72H164.818C160.399 72 156.818 75.5817 156.818 80V83.9806C156.818 88.3988 160.399 91.9806 164.818 91.9806H193.818C198.236 91.9806 201.818 88.3988 201.818 83.9806V80ZM218 72C213.581 72 210 75.5817 210 80V93.9708C210 98.3891 206.418 101.971 202 101.971H156.636C152.218 101.971 148.636 98.3891 148.636 93.9708V80C148.636 75.5817 145.054 72 140.636 72H84.9037C81.4375 72 78.3656 74.2322 77.2949 77.5289L51.1276 158.101C49.4489 163.27 53.3019 168.573 58.7364 168.573H301.263C306.697 168.573 310.55 163.27 308.872 158.101L282.704 77.5289C281.634 74.2322 278.562 72 275.096 72H218Z" fill="#393129"/>
</svg>
