<svg width="14" height="14" viewBox="0 0 14 14" fill="none" xmlns="http://www.w3.org/2000/svg">
<path fill-rule="evenodd" clip-rule="evenodd" d="M0.548114 7.92921C0.715918 7.92921 0.863105 8.03987 0.9079 8.19971L1.89706 11.7295C1.94185 11.8893 2.08904 12 2.25684 12H11.8071C11.9749 12 12.122 11.8893 12.1668 11.7295L13.156 8.19971C13.2008 8.03987 13.348 7.92921 13.5158 7.92921H13.6267C13.8328 7.92921 14 7.76397 14 7.56017V7.14612C14 6.94232 13.8328 6.77708 13.6267 6.77708H0.21833C0.0977527 6.77708 0 6.87372 0 6.99292V7.56017C0 7.76397 0.167146 7.92921 0.373333 7.92921H0.548114Z" fill="#393129"/>
<path fill-rule="evenodd" clip-rule="evenodd" d="M8.01817 2.36904C8.01817 2.16522 7.85101 2 7.64484 2H6.29151C6.08529 2 5.91817 2.16522 5.91817 2.36904V2.55266C5.91817 2.75647 6.08529 2.9217 6.29151 2.9217H7.64484C7.85101 2.9217 8.01817 2.75647 8.01817 2.55266V2.36904ZM8.77333 2C8.56711 2 8.4 2.16522 8.4 2.36904V3.0135C8.4 3.21732 8.23284 3.38255 8.02667 3.38255H5.90968C5.70351 3.38255 5.53635 3.21732 5.53635 3.0135V2.36904C5.53635 2.16522 5.36919 2 5.16301 2H2.56217C2.40042 2 2.25706 2.10297 2.2071 2.25505L0.985955 5.9718C0.907615 6.21024 1.08742 6.45486 1.34103 6.45486H12.6589C12.9125 6.45486 13.0923 6.21024 13.014 5.9718L11.7929 2.25505C11.7429 2.10297 11.5996 2 11.4378 2H8.77333Z" fill="#393129"/>
</svg>
