<svg width="16" height="16" viewBox="0 0 16 16" fill="none" xmlns="http://www.w3.org/2000/svg">
<path fill-rule="evenodd" clip-rule="evenodd" d="M3.7266 5.86298L6.39023 3.96794L5.69609 3L0 7.05248H11.4153C11.415 7.05247 11.4156 7.05248 11.4153 7.05248L11.431 7.05288C11.4458 7.05337 11.4703 7.05444 11.5031 7.05677C11.5688 7.06144 11.6667 7.07108 11.7857 7.09082C12.0264 7.13077 12.3384 7.20958 12.6431 7.3613C12.9454 7.51185 13.2296 7.72836 13.4395 8.04201C13.647 8.35194 13.8058 8.79193 13.8058 9.43134C13.8058 10.0708 13.647 10.5108 13.4395 10.8207C13.2296 11.1344 12.9454 11.351 12.643 11.5016C12.3383 11.6533 12.0264 11.7321 11.7856 11.7721C11.6666 11.7919 11.5688 11.8015 11.503 11.8062C11.4702 11.8085 11.4457 11.8096 11.4309 11.8101L11.4162 11.8105C11.4165 11.8105 11.4173 11.8105 11.4173 12.4052V13H5.44604V11.8105L11.4162 11.8105L11.4173 12.4052C11.4173 13 11.4169 13 11.4173 13L11.4186 13L11.4202 13L11.4242 13L11.4355 12.9998L11.4707 12.9989C11.4996 12.998 11.5392 12.9962 11.5881 12.9927C11.6856 12.9857 11.821 12.9722 11.9819 12.9454C12.3009 12.8925 12.7354 12.7855 13.1771 12.5655C13.6212 12.3443 14.0834 12.0033 14.4332 11.4805C14.7856 10.9541 15 10.2789 15 9.43134C15 8.5838 14.7856 7.90861 14.4332 7.38219C14.0833 6.85948 13.6211 6.51845 13.1771 6.29734C12.7354 6.0774 12.3009 5.97041 11.9819 5.91748C11.821 5.89078 11.6856 5.87721 11.588 5.87028C11.5392 5.86681 11.4995 5.86499 11.4706 5.86403L11.4354 5.86314L11.4241 5.86301L11.4201 5.86298L11.4185 5.86298C11.4183 5.86298 11.4173 5.86298 11.4173 6.2028V5.86298H3.7266ZM11.4168 7.05248L11.4153 7.05248Z" fill="#393129"/>
</svg>
