<svg width="14" height="14" viewBox="0 0 14 14" fill="none" xmlns="http://www.w3.org/2000/svg">
<g clip-path="url(#clip0_919_8)">
<path fill-rule="evenodd" clip-rule="evenodd" d="M5.57555 0.0339601C4.83945 0.160591 3.89115 0.822009 3.52315 1.46545L3.34315 1.78015L2.71283 1.78009C1.77482 1.78003 1.2053 2.02032 0.651281 2.65008C-0.564424 4.03184 0.0177755 6.2567 1.74769 6.83973C2.05972 6.94489 2.26402 6.96214 3.2838 6.969C3.9329 6.97335 4.4588 6.95364 4.4572 6.92498C4.45565 6.89646 3.9405 6.3551 3.31245 5.722C2.1513 4.55139 2.09336 4.47025 2.20702 4.17395C2.26038 4.03474 2.56542 3.89442 2.71653 3.93949C2.78757 3.96065 3.4546 4.58315 4.1988 5.32276C4.94305 6.06241 5.58365 6.66755 5.62245 6.66755C5.6759 6.66755 5.69295 6.20578 5.69295 4.76099C5.69295 2.87521 5.6944 2.85307 5.8215 2.7346C5.971 2.59522 6.26535 2.5776 6.43025 2.69812C6.5384 2.77718 6.54575 2.88878 6.5736 4.87789L6.60295 6.97435L7.27805 6.9731C7.89965 6.972 7.952 6.96329 7.93815 6.8638C7.78025 5.72575 8.00725 4.76619 8.6296 3.94154C9.1919 3.19643 10.3066 2.61484 11.1724 2.61484C11.3192 2.61484 11.454 2.59105 11.472 2.56203C11.522 2.48098 11.1442 2.17726 10.7775 2.0037C10.4052 1.82749 9.8232 1.73833 9.303 1.7778L8.95025 1.80459L8.8075 1.54897C8.46615 0.937599 7.69305 0.318647 7.02965 0.125704C6.6132 0.00459101 5.97905 -0.0354082 5.57555 0.0339601ZM11.0885 3.56471C9.7219 3.69172 8.68865 4.96929 8.82915 6.35825C8.8977 7.03568 8.5978 6.96525 11.414 6.96525C13.1032 6.96525 13.8926 6.94534 13.9363 6.90151C13.9748 6.863 14 6.56505 14 6.1476C14 5.47018 13.9959 5.44922 13.7833 5.01991C13.2606 3.9642 12.3104 3.45111 11.0885 3.56471ZM0.541791 7.95827C0.310311 8.01325 0.193426 8.10524 0.0825857 8.31965C-0.169384 8.80718 0.184621 10.3169 0.746211 11.1496C1.18428 11.7991 1.98017 12.4769 2.65583 12.776C2.90328 12.8855 2.92066 12.9091 2.983 13.2196C3.05995 13.6031 3.21755 13.8494 3.44665 13.9443C3.56585 13.9937 4.5644 14.0078 7.11125 13.9961C10.5172 13.9805 10.6157 13.9769 10.744 13.8626C10.9173 13.7081 11.0912 13.3225 11.0927 13.0887C11.0939 12.9203 11.1251 12.8878 11.4121 12.7564C12.3322 12.335 13.0968 11.5886 13.5557 10.664C13.8727 10.0255 13.9886 9.55609 13.9947 8.88657C13.9997 8.34721 13.9916 8.30729 13.8477 8.16297C13.7641 8.07898 13.5924 7.98634 13.4662 7.95702C13.1878 7.89244 0.814076 7.89359 0.541791 7.95827Z" fill="#393129"/>
</g>
<defs>
<clipPath id="clip0_919_8">
<rect width="14" height="14" fill="white"/>
</clipPath>
</defs>
</svg>
