<svg width="360" height="360" viewBox="0 0 360 360" fill="none" xmlns="http://www.w3.org/2000/svg">
<path fill-rule="evenodd" clip-rule="evenodd" d="M151.511 40.6789C136.789 43.2103 117.823 56.4323 110.463 69.295L106.863 75.586L94.2566 75.5848C75.4963 75.5836 64.1059 80.387 53.0256 92.9761C28.7115 120.598 40.3555 165.074 74.9538 176.729C81.1943 178.831 85.2803 179.176 105.676 179.313C118.658 179.4 129.176 179.006 129.144 178.433C129.113 177.863 118.81 167.041 106.249 154.385C83.026 130.984 81.8671 129.362 84.1403 123.439C85.2076 120.656 91.3084 117.851 94.3306 118.752C95.7513 119.175 109.092 131.619 123.976 146.404C138.861 161.19 151.673 173.287 152.449 173.287C153.518 173.287 153.859 164.056 153.859 135.174C153.859 97.4766 153.888 97.034 156.43 94.6657C159.42 91.8795 165.307 91.5273 168.605 93.9366C170.768 95.517 170.915 97.7478 171.472 137.511L172.059 179.42L185.561 179.395C197.993 179.373 199.04 179.199 198.763 177.21C195.605 154.46 200.145 135.278 212.592 118.793C223.838 103.898 246.131 92.2717 263.448 92.2717C266.384 92.2717 269.08 91.7961 269.439 91.2161C270.44 89.5958 262.884 83.5243 255.55 80.0548C248.104 76.5323 236.464 74.75 226.06 75.539L219.005 76.0744L216.15 70.9646C209.323 58.743 193.861 46.3699 180.593 42.5129C172.264 40.0918 159.581 39.2922 151.511 40.6789ZM261.77 111.26C234.438 113.799 213.773 139.338 216.583 167.104C217.954 180.646 211.956 179.238 268.28 179.238C302.064 179.238 317.852 178.84 318.727 177.964C319.497 177.194 320 171.238 320 162.893C320 149.351 319.919 148.932 315.667 140.35C305.212 119.246 286.208 108.989 261.77 111.26ZM50.8358 199.089C46.2062 200.188 43.8685 202.027 41.6517 206.313C36.6123 216.059 43.6924 246.239 54.9242 262.885C63.6856 275.869 79.6034 289.419 93.1165 295.398C98.0655 297.586 98.4131 298.057 99.66 304.265C101.199 311.932 104.351 316.854 108.933 318.752C111.317 319.74 131.288 320.022 182.225 319.788C250.343 319.476 252.313 319.404 254.879 317.119C258.346 314.031 261.823 306.322 261.854 301.648C261.878 298.282 262.502 297.633 268.242 295.005C286.644 286.581 301.936 271.661 311.114 253.178C317.453 240.413 319.771 231.03 319.894 217.646C319.994 206.864 319.832 206.066 316.955 203.181C315.282 201.502 311.848 199.65 309.324 199.064C303.755 197.773 56.2815 197.796 50.8358 199.089Z" fill="#393129"/>
</svg>
