<svg width="1910" height="890" viewBox="0 0 1910 890" fill="none" xmlns="http://www.w3.org/2000/svg">
<path d="M1.64941 887.375V0L1834.95 0.824698L1910 877.478V887.375H1.64941Z" fill="#FAF7F2"/>
<path fill-rule="evenodd" clip-rule="evenodd" d="M0.115046 444.271L0 888.542H414.877H829.752L830.151 880.153L830.551 871.763L852.893 872.13L875.236 872.496L875.636 880.943C876.169 892.164 879.094 891.535 879.648 880.079L880.045 871.828H901.992H923.938L924.335 880.177L924.734 888.525L1417.37 888.626L1910 888.727V877.655C1910 871.565 1893.14 671.826 1872.54 433.789C1851.94 195.752 1835.08 0.771543 1835.08 0.497425C1835.08 0.223308 1422.24 0 917.657 0H0.230095L0.115046 444.271ZM162.875 125.693V232.666H148.828H134.781L134.84 237.011C134.997 248.595 143.177 260.29 154.951 265.766C160.159 268.187 162.852 270.234 162.861 271.778C162.873 273.977 158.548 274.118 90.6351 274.118H18.3957L18.1415 245.703C17.4699 170.416 17.4298 71.3963 18.0599 46.4663L18.7609 18.7202H90.8184H162.875V125.693ZM437.117 76.2181C437.117 122.918 436.785 133.716 435.354 133.716C434.383 133.716 430.558 134.616 426.854 135.715C417.954 138.357 408.858 146.468 405.161 155.06L402.26 161.796H291.932H181.603V90.2582V18.7202H309.36H437.117V76.2181ZM712.697 76.0469V133.374L707.223 134.249C704.213 134.731 699.52 136.261 696.795 137.65C690.015 141.108 681.101 151.092 679.235 157.319L677.692 162.465L567.439 162.116L457.184 161.765V90.2435V18.7202H584.941H712.697V76.0469ZM985.602 75.9506V133.181L977.755 134.8C973.177 135.746 967.577 138.108 964.313 140.473C958.373 144.773 950.82 155.359 950.82 159.384C950.82 161.689 945.912 161.796 839.785 161.796H728.751V91.1501C728.751 52.2936 729.152 20.1015 729.643 19.6121C730.133 19.1214 787.924 18.7202 858.069 18.7202H985.602V75.9506ZM1330.75 77.2878V135.855L1322.89 137.477C1312.93 139.534 1303.8 146.289 1299.42 154.844L1296.2 161.128L1294.66 157.116C1292.65 151.841 1284.52 143.503 1278.24 140.264C1275.49 138.841 1270.52 137.306 1267.21 136.852L1261.18 136.026V148.911V161.796H1136.1H1011.02V90.2582V18.7202H1170.88H1330.75V77.2878ZM1682.58 77.5552C1682.58 133.541 1682.46 136.39 1680.15 136.39C1669.6 136.39 1655.59 145.387 1650.68 155.314L1647.91 160.918L1646.57 157.416C1644.61 152.242 1636 143.254 1630.17 140.28C1627.36 138.848 1622.35 137.306 1619.04 136.852L1613.02 136.026V148.911V161.796H1487.27H1361.52V90.2582V18.7202H1522.05H1682.58V77.5552ZM1818.21 25.7403C1818.66 29.602 1829.25 151.3 1841.74 296.181C1854.23 441.062 1864.82 563.066 1865.28 567.3L1866.12 574.998L1784.05 574.655L1701.98 574.31L1701.6 528.178C1701.4 502.805 1701.56 480.693 1701.96 479.037C1702.37 477.382 1703.59 476.029 1704.68 476.029C1706.34 476.029 1706.66 472.794 1706.66 455.971C1706.66 440.088 1706.29 435.914 1704.87 435.914C1703.45 435.914 1702.88 430.153 1702.19 408.836C1701.1 374.99 1701.07 278.499 1702.15 274.452C1702.6 272.796 1703.79 271.443 1704.81 271.443C1706.31 271.443 1706.66 267.075 1706.66 248.043C1706.66 229.375 1706.3 224.643 1704.87 224.643C1702.44 224.643 1701.31 181.61 1701.31 89.373V18.7202H1759.35H1817.39L1818.21 25.7403ZM6.35574 76.8866C6.35574 100.362 6.06812 104.298 4.34908 104.298C2.63005 104.298 2.34243 100.362 2.34243 76.8866C2.34243 53.4115 2.63005 49.4749 4.34908 49.4749C6.06812 49.4749 6.35574 53.4115 6.35574 76.8866ZM10.369 50.812C10.369 51.5475 9.76705 52.1492 9.03127 52.1492C8.2955 52.1492 7.6935 51.5475 7.6935 50.812C7.6935 50.0766 8.2955 49.4749 9.03127 49.4749C9.76705 49.4749 10.369 50.0766 10.369 50.812ZM15.7201 76.8866C15.7201 94.2697 15.2305 104.298 14.3823 104.298C13.5342 104.298 13.0446 94.2697 13.0446 76.8866C13.0446 59.5036 13.5342 49.4749 14.3823 49.4749C15.2305 49.4749 15.7201 59.5036 15.7201 76.8866ZM8.69148 88.5186C8.44801 95.3595 8.24734 90.1245 8.246 76.8866C8.24467 63.6488 8.44399 58.0528 8.6888 64.4497C8.93362 70.848 8.93495 81.679 8.69148 88.5186ZM11.367 88.5186C11.1235 95.3595 10.9229 90.1245 10.9215 76.8866C10.9202 63.6488 11.1195 58.0528 11.3643 64.4497C11.6092 70.848 11.6105 81.679 11.367 88.5186ZM1810.6 73.1894L1817.55 73.6788L1818.28 79.2935C1818.68 82.3824 1820.23 99.6518 1821.73 117.67C1823.22 135.688 1824.78 152.65 1825.19 155.363L1825.93 160.295L1820.14 160.812L1814.35 161.33L1820.83 161.562L1827.31 161.796L1826.52 155.445C1826.08 151.951 1824.52 134.652 1823.05 117.001C1821.57 99.3509 1820.01 82.0507 1819.57 78.5581L1818.78 72.2066L1811.21 72.454L1803.65 72.7013L1810.6 73.1894ZM1785.96 74.4824C1783.32 74.9932 1783.06 75.6765 1783.65 80.6521C1784.23 85.4886 1790.94 162.073 1790.94 163.827C1790.94 164.182 1792.9 164.381 1795.29 164.27C1799.33 164.084 1799.38 164.031 1795.96 163.513C1793.93 163.207 1792.25 162.244 1792.21 161.374C1792.17 160.503 1790.46 141.137 1788.41 118.339C1786.35 95.54 1784.91 76.6098 1785.19 76.2715C1785.47 75.9346 1788.83 75.6337 1792.66 75.603L1799.62 75.5495L1802.44 107.641C1803.99 125.292 1805.69 144.654 1806.21 150.668L1807.16 161.602L1803.4 162.168C1801.33 162.478 1802.95 162.74 1806.99 162.751C1811.04 162.76 1812.99 162.509 1811.34 162.189C1809.68 161.871 1808.33 161.062 1808.33 160.391C1808.33 159.721 1806.79 141.862 1804.9 120.704C1803.01 99.5461 1801.69 80.279 1801.96 77.8895L1802.44 73.5437L1795.69 73.7256C1791.97 73.8259 1787.59 74.1669 1785.96 74.4824ZM11.3443 103.769C10.9001 104.213 9.74564 104.261 8.78111 103.875C7.71357 103.448 8.03062 103.131 9.58912 103.067C10.9991 103.009 11.7884 103.325 11.3443 103.769ZM434.442 152.436V168.482H419.057C405.713 168.482 403.673 168.192 403.673 166.297C403.673 153.9 419.345 136.632 430.763 136.449L434.442 136.39V152.436ZM708.684 152.436V168.482H693.969C679.269 168.482 679.253 168.478 679.253 165.226C679.253 156.703 686.686 145.576 695.911 140.287C699.625 138.158 704.019 136.41 705.674 136.402C708.629 136.39 708.684 136.683 708.684 152.436ZM981.589 152.436V168.482H966.056H950.522L951.452 163.531C953.981 150.051 967.415 136.636 978.579 136.442C981.537 136.392 981.589 136.672 981.589 152.436ZM983.917 160.793C983.656 165.391 983.442 161.629 983.442 152.436C983.442 143.243 983.656 139.483 983.917 144.079C984.179 148.676 984.179 156.198 983.917 160.793ZM1263.51 160.741C1263.25 165.366 1263.03 161.93 1263.03 153.105C1263.03 144.279 1263.24 140.495 1263.51 144.695C1263.77 148.895 1263.77 156.116 1263.51 160.741ZM1276.57 141.438C1286.86 146.561 1293.33 154.486 1295.1 164.136L1295.9 168.482H1280.55H1265.2V153.079V137.677L1268.87 138.558C1270.9 139.043 1274.36 140.339 1276.57 141.438ZM1328.07 153.852V168.482H1312.54H1297L1297.91 163.468C1299.07 157.071 1303.92 149.633 1309.92 145.06C1314.61 141.482 1325.17 137.527 1327.07 138.635C1327.62 138.959 1328.07 145.805 1328.07 153.852ZM1629.93 142.156C1639 146.853 1646.46 157.21 1646.46 165.096V168.482H1631.74H1617.03V153.245V138.01L1621.38 138.994C1623.77 139.534 1627.62 140.958 1629.93 142.156ZM1679.9 153.852V168.482H1664.52C1649.59 168.482 1649.14 168.395 1649.14 165.562C1649.14 160.543 1654.48 151.308 1660.25 146.377C1665.4 141.973 1676.62 137.317 1678.9 138.639C1679.45 138.96 1679.9 145.805 1679.9 153.852ZM1330.4 161.462C1330.13 165.69 1329.91 162.231 1329.91 153.773C1329.91 145.316 1330.13 141.857 1330.4 146.085C1330.66 150.313 1330.66 157.234 1330.4 161.462ZM1615.34 161.462C1615.08 165.69 1614.86 162.231 1614.86 153.773C1614.86 145.316 1615.08 141.857 1615.34 146.085C1615.61 150.313 1615.61 157.234 1615.34 161.462ZM6.35574 191.214C6.35574 215.283 6.06945 219.294 4.34908 219.294C2.63139 219.294 2.34243 215.382 2.34243 192.106C2.34243 177.151 2.74376 164.515 3.23472 164.025C5.87414 161.386 6.35574 165.575 6.35574 191.214ZM11.0379 164.471C11.4928 165.206 10.9256 165.808 9.77909 165.808C8.63262 165.808 7.6935 165.206 7.6935 164.471C7.6935 163.735 8.25938 163.133 8.95234 163.133C9.64531 163.133 10.5831 163.735 11.0379 164.471ZM15.7201 191.214C15.7201 209.042 15.2318 219.294 14.3823 219.294C13.5329 219.294 13.0446 209.042 13.0446 191.214C13.0446 173.385 13.5329 163.133 14.3823 163.133C15.2318 163.133 15.7201 173.385 15.7201 191.214ZM8.69014 203.582C8.44801 210.386 8.24868 204.819 8.24868 191.214C8.24868 177.608 8.44801 172.042 8.69014 178.845C8.93362 185.647 8.93362 196.779 8.69014 203.582ZM11.367 203.514C11.1235 210.355 10.9229 205.12 10.9215 191.882C10.9202 178.644 11.1195 173.048 11.3643 179.445C11.6092 185.844 11.6105 196.675 11.367 203.514ZM436.603 175.168L437.46 180.516H557.516H677.573L678.429 175.168L679.285 169.819H695.205H711.124L712.028 175.168L712.933 180.516H831.09H949.247L950.158 175.128L951.069 169.739L967.284 170.113L983.499 170.488L984.683 175.502L985.868 180.516H1123.41H1260.95L1261.86 175.145L1262.76 169.774L1296.42 170.131L1330.08 170.488L1330.49 175.502L1330.91 180.516H1471.84H1612.78L1613.68 175.168L1614.59 169.819H1647.85H1681.12L1681.85 174.165C1682.24 176.554 1682.72 181.218 1682.91 184.528L1683.25 190.545L1691.61 190.944L1699.97 191.341V208.597V225.853L1691.61 226.25L1683.25 226.648L1682.88 250.383L1682.52 274.118H1238.39H794.261L794.616 313.228C794.921 346.875 795.251 352.357 796.977 352.471C805.774 353.049 805.003 351.651 805.003 367.034V381.058L799.652 381.914L794.301 382.77V391.959V401.148H885.098H975.895L976.751 395.799L977.608 390.45H990.953H1004.3L1005.16 395.807L1006.01 401.165L1103.16 400.821L1200.31 400.479L1200.98 395.799L1201.65 391.119L1217.91 390.745L1234.18 390.37L1235.09 395.759L1236 401.148H1330.02H1424.05L1424.9 395.799L1425.76 390.45H1441.68H1457.6L1458.5 395.799L1459.41 401.148H1553.48H1647.56L1648.47 395.799L1649.37 390.45H1665.15C1682.95 390.45 1682.52 390.164 1682.56 402.086L1682.58 407.706L1690.94 408.104L1699.3 408.502L1699.68 422.811L1700.06 437.121L1691.65 437.52L1683.25 437.92L1682.92 454.634C1682.43 479.512 1684.11 477.366 1665.18 477.366H1649.17L1648.31 472.017L1647.45 466.668H1553.48H1459.51L1458.66 472.017L1457.8 477.366H1441.79H1425.78L1424.97 473.689C1424.53 471.667 1423.94 469.26 1423.65 468.34C1423.25 467.024 1403.27 466.668 1329.62 466.668H1236.11L1235.25 472.017L1234.39 477.366H1217.77H1201.14L1200.73 472.351L1200.31 467.337L1103.62 466.993C1026.93 466.722 1006.82 466.999 1006.41 468.331C1006.12 469.256 1005.53 471.667 1005.09 473.689L1004.28 477.366H990.953H977.626L976.821 473.689C976.377 471.667 975.783 469.26 975.499 468.34C975.094 467.024 955.738 466.668 884.585 466.668H794.184L794.577 476.363C794.88 483.842 795.429 486.087 796.977 486.188C805.771 486.761 805.003 485.369 805.003 500.75V514.774L799.652 515.63L794.301 516.486V555.761C794.301 580.632 794.784 595.036 795.618 595.036C796.442 595.036 797.068 608.934 797.29 632.142L797.646 669.248L878.495 669.593C942.289 669.864 959.571 669.582 960.413 668.256C961.652 666.305 961.921 616.351 960.71 613.197C959.668 610.483 941.75 610.084 940.739 612.753C940.391 613.673 939.957 626.459 939.777 641.168L939.449 667.911L878.915 668.259L818.381 668.606V655.89V643.173L878.246 642.854L938.111 642.533L878.246 642.171L818.381 641.808V618.423V595.036H928.078H1037.78V633.206V671.375L1046.81 670.981L1055.83 670.585L1056.19 632.81L1056.55 595.036H1072.58C1088.33 595.036 1088.61 595.089 1088.61 598.054C1088.61 600.739 1087.98 601.054 1082.92 600.914C1079.26 600.812 1078.66 600.966 1081.25 601.348C1087.36 602.251 1088.61 604.031 1088.61 611.818C1088.61 620.252 1086.39 623.116 1079.85 623.116C1075.99 623.116 1075.14 622.549 1074.37 619.463C1073.21 614.855 1073.21 610.393 1074.37 604.242C1075.25 599.611 1075.14 599.435 1071.89 600.058C1067.21 600.951 1063.19 606.487 1063.19 612.034C1063.19 619.139 1069.2 624.453 1077.22 624.453C1080.64 624.453 1084.6 623.83 1086.02 623.069C1088.37 621.812 1088.61 622.157 1088.61 626.812C1088.61 631.75 1088.45 631.931 1084.26 631.719C1081.3 631.57 1080.98 631.694 1083.26 632.108C1087.73 632.925 1088.57 634.582 1088.59 642.744C1088.61 650.997 1086.36 653.871 1079.85 653.871C1076.02 653.871 1075.14 653.297 1074.39 650.294C1073.15 645.377 1073.12 640.705 1074.29 634.997C1075.25 630.35 1075.15 630.188 1071.89 630.813C1064.67 632.19 1060.63 643.184 1065.1 649.27C1066.79 651.575 1066.84 651.261 1065.56 646.455C1063.81 639.872 1066.28 633.377 1070.77 632.734C1073.45 632.352 1073.57 632.679 1072.5 637.408C1071.87 640.204 1071.85 644.722 1072.47 647.447C1073.72 653.003 1073.29 654.002 1070.08 652.984C1068.18 652.38 1068.16 652.483 1069.88 653.724C1072.45 655.568 1082.65 655.63 1086.02 653.824C1088.25 652.63 1088.61 652.891 1088.61 655.72C1088.61 663.195 1088.71 663.231 1109.41 663.231C1120.88 663.231 1128.92 662.688 1129.42 661.879C1129.88 661.137 1130.24 655.343 1130.21 649.005C1130.17 635.814 1131.27 632.824 1136.44 632.23C1138.46 631.997 1139.47 631.388 1138.68 630.873C1137.89 630.359 1135.66 630.763 1133.71 631.77L1130.18 633.602L1130.2 620.125C1130.22 603.428 1131 601.722 1138.67 601.722C1143.57 601.722 1144.61 602.195 1145.29 604.73C1146.52 609.305 1146.29 615.847 1144.76 619.856C1143.49 623.21 1142.97 623.409 1137.23 622.762C1133.43 622.335 1131.77 622.518 1132.91 623.239C1133.93 623.885 1137.95 624.421 1141.85 624.433C1151.32 624.46 1155.5 620.622 1155.5 611.907C1155.5 605.639 1153.4 602.333 1148.27 600.495C1144.38 599.103 1134.25 599.926 1131.97 601.818C1130.41 603.112 1130.08 602.656 1130.08 599.21V595.036H1161.52H1192.96L1192.85 599.381C1192.79 601.772 1192.44 602.976 1192.07 602.056C1191.7 601.136 1190.09 600.394 1188.5 600.404C1185.75 600.423 1185.78 600.515 1188.94 602.107C1191.62 603.453 1192.37 604.964 1192.71 609.668C1193.28 617.652 1192.14 621.433 1188.84 622.481C1187.31 622.965 1186.36 623.655 1186.72 624.015C1187.08 624.376 1188.63 623.999 1190.17 623.178C1192.82 621.759 1192.95 622 1192.85 628.084C1192.79 631.603 1192.44 633.73 1192.07 632.81C1191.7 631.89 1190.09 631.148 1188.5 631.159C1185.75 631.178 1185.78 631.27 1188.94 632.863C1191.82 634.315 1192.34 635.588 1192.68 642.057C1193.04 648.843 1192.74 649.839 1189.49 652.388C1185.91 655.205 1186.49 656.307 1190.28 653.887C1191.9 652.849 1192.41 653.554 1192.96 657.584L1193.63 662.562L1212.92 662.935C1233.76 663.336 1234.37 663.145 1234.41 656.164C1234.42 652.899 1234.75 652.61 1237.01 653.824C1241.28 656.105 1241.71 655.394 1237.89 652.388C1234.65 649.839 1234.34 648.843 1234.7 642.057C1235.04 635.628 1235.58 634.288 1238.44 632.744L1241.78 630.938L1238.11 631.523C1234.62 632.075 1234.43 631.829 1234.43 626.895C1234.43 622.159 1234.66 621.811 1237.01 623.069C1241.28 625.35 1241.71 624.639 1237.89 621.633C1234.65 619.085 1234.34 618.088 1234.7 611.302C1235.04 604.873 1235.58 603.533 1238.44 601.989L1241.78 600.184L1238.11 600.768C1234.97 601.266 1234.43 600.887 1234.43 598.193V595.036H1346.73C1422.28 595.036 1461.25 595.509 1465.8 596.484L1472.55 597.932V613.677V629.422L1466.86 630.623L1461.18 631.824V656.084V680.345L1544.79 679.806C1590.78 679.511 1640.89 679.654 1656.16 680.124L1683.92 680.979V735.621V790.261H1691.94H1699.97V804.97V819.678H1691.94H1683.92V831.802C1683.92 843.809 1683.89 843.917 1680.91 842.834C1679.25 842.234 1675.19 841.742 1671.88 841.742C1668.57 841.742 1664.5 842.234 1662.85 842.834C1660.22 843.79 1659.84 843.489 1659.84 840.451V836.973L1644.8 837.352L1629.76 837.73L1628.9 841.742C1628.43 843.948 1627.98 845.002 1627.89 844.082C1627.8 843.163 1626.69 842.41 1625.43 842.41C1623.53 842.41 1623.65 842.781 1626.09 844.492C1628.55 846.208 1629.07 847.847 1629.07 853.821C1629.07 860.025 1628.6 861.376 1625.81 863.203C1624.02 864.376 1620.88 865.142 1618.83 864.905C1615.74 864.547 1614.9 863.6 1613.9 859.331C1613.2 856.342 1613.18 851.868 1613.86 848.647C1614.85 843.953 1615.64 842.973 1619.04 842.247C1623 841.399 1622.99 841.387 1618.2 841.231C1613.38 841.074 1613.36 841.104 1612.49 847.656C1612.01 851.275 1612.02 856.759 1612.51 859.841C1613.37 865.243 1613.3 865.391 1610.57 863.925C1604.19 860.517 1602.99 850.969 1608.27 845.693C1610.08 843.888 1611 842.41 1610.33 842.41C1609.66 842.41 1607.88 843.727 1606.38 845.337C1603.28 848.665 1602.7 857.771 1605.37 861.247C1609.18 866.208 1618.24 867.985 1625.56 865.205C1628.66 864.024 1628.94 864.243 1629.32 868.213L1629.74 872.496H1645.04H1660.35L1660.86 859.125C1661.14 851.77 1661.83 845.28 1662.39 844.702C1662.95 844.123 1665.68 843.283 1668.45 842.834C1674.83 841.799 1675.85 843.311 1675.85 853.776C1675.85 864.437 1674.9 865.719 1667.73 864.759C1664.01 864.259 1662.67 864.42 1663.92 865.213C1664.99 865.887 1668.35 866.447 1671.4 866.459L1676.94 866.479L1676.75 854.656C1676.58 843.924 1676.78 842.892 1678.94 843.457C1681.99 844.254 1684.13 848.26 1683.98 852.857C1683.44 869.148 1683.69 868.447 1678.23 868.899C1673.92 869.256 1673.22 869.772 1673.22 872.576V875.839H1597.63H1522.05V872.496C1522.05 869.377 1521.6 869.153 1515.36 869.153H1508.67V856.718C1508.67 848.828 1508.08 843.695 1507.06 842.678C1506.18 841.795 1502.45 841.073 1498.77 841.073C1493.57 841.073 1492.44 840.716 1493.69 839.468C1494.57 838.586 1495.29 834.347 1495.29 830.048C1495.29 823.532 1494.75 821.686 1492.01 818.95C1487.72 814.665 1479.77 814.481 1474.6 818.544C1471.1 821.294 1470.96 821.866 1471.44 831.247L1471.93 841.073H1467.85H1463.77L1464.29 831.798C1464.77 823.273 1464.54 822.246 1461.39 819.095C1458.82 816.533 1456.57 815.667 1452.48 815.667C1448.39 815.667 1446.14 816.533 1443.58 819.095C1440.43 822.246 1440.19 823.273 1440.67 831.798L1441.2 841.073H1435.31C1430.57 841.073 1429.7 840.727 1430.88 839.301C1431.69 838.326 1432.5 834.046 1432.68 829.79C1432.97 822.791 1432.65 821.746 1429.29 818.859C1424.81 815.005 1416.33 814.485 1413.52 817.892C1411.86 819.903 1411.96 819.967 1414.6 818.561C1418.68 816.39 1424.58 816.62 1428.11 819.086C1430.64 820.859 1431.08 822.405 1431.08 829.516C1431.08 834.225 1430.38 838.563 1429.47 839.468C1428.59 840.351 1424.72 841.073 1420.87 841.073C1412.2 841.073 1409.37 838.703 1409.94 831.933C1410.26 828.161 1411.06 826.919 1413.69 826.107C1416.97 825.097 1416.96 825.086 1413.38 825.531C1410.06 825.943 1409.79 825.661 1410.47 822.497C1411.06 819.784 1410.91 819.455 1409.8 821.016C1407.97 823.591 1407.92 835.12 1409.72 838.487C1411 840.868 1410.62 841.073 1404.99 841.073C1399.36 841.073 1398.99 840.868 1400.26 838.487C1402.07 835.12 1402.01 823.591 1400.18 821.016C1399.07 819.455 1398.92 819.784 1399.51 822.497C1400.2 825.661 1399.93 825.943 1396.61 825.531C1393.02 825.086 1393.02 825.097 1396.3 826.107C1398.93 826.919 1399.73 828.161 1400.05 831.933C1400.62 838.73 1397.79 841.073 1389.01 841.073C1380.56 841.073 1378.56 839.272 1379.15 832.193C1379.49 828.149 1380.24 826.932 1382.92 826.107C1386.18 825.102 1386.17 825.089 1382.58 825.535C1379.76 825.887 1378.91 825.432 1378.91 823.58C1378.91 818.224 1388.98 815.152 1395.38 818.561C1398.02 819.967 1398.13 819.903 1396.47 817.892C1393.66 814.485 1385.18 815.005 1380.69 818.859C1377.34 821.746 1377.01 822.791 1377.3 829.79C1377.48 834.046 1378.29 838.326 1379.1 839.301C1380.28 840.724 1379.48 841.073 1375.06 841.073H1369.54V827.033V812.993H1363.52H1357.5V829.735V846.478L1297.3 846.355L1237.1 846.232V829.612V812.993H1231.75H1226.4V827.033V841.073H1218.78C1212.84 841.073 1211.51 840.716 1212.76 839.468C1213.64 838.586 1214.36 834.347 1214.36 830.048C1214.36 823.532 1213.81 821.686 1211.08 818.95C1206.79 814.665 1198.84 814.481 1193.67 818.544C1190.18 821.291 1190.03 821.873 1190.5 831.193L1191 840.962H1177C1168.93 840.962 1162.26 840.348 1161.25 839.517C1160.16 838.609 1159.51 834.93 1159.51 829.619C1159.51 822.401 1159.95 820.863 1162.49 819.086C1166.01 816.62 1171.91 816.39 1175.99 818.561C1178.63 819.967 1178.73 819.903 1177.07 817.892C1174.25 814.468 1165.78 815.005 1161.26 818.896C1157.86 821.818 1157.54 822.851 1157.83 829.781C1158.01 833.991 1158.84 838.256 1159.67 839.254C1160.9 840.743 1160.05 841.073 1154.95 841.073C1149.2 841.073 1148.82 840.871 1150.1 838.487C1151.87 835.18 1151.86 823.638 1150.09 821.016C1149.07 819.51 1148.93 819.886 1149.54 822.521C1150.29 825.745 1150.04 825.994 1146.57 825.555C1142.98 825.101 1142.96 825.129 1146.13 826.107C1148.77 826.919 1149.57 828.161 1149.88 831.933C1150.46 838.73 1147.63 841.073 1138.84 841.073C1130.4 841.073 1128.4 839.272 1128.99 832.193C1129.33 828.149 1130.08 826.932 1132.76 826.107C1136.02 825.102 1136.01 825.089 1132.42 825.535C1127.89 826.099 1127.56 823.558 1131.67 819.731C1134.84 816.779 1140.75 816.178 1144.88 818.388C1146.37 819.185 1147.47 819.245 1147.47 818.531C1147.47 814.575 1135.32 814.74 1130.64 818.761C1127.52 821.449 1127.07 822.798 1127.21 829.014C1127.29 832.951 1127.72 837.275 1128.15 838.622C1128.81 840.708 1128.16 841.073 1123.79 841.073H1118.66L1119.15 831.247C1119.63 821.866 1119.49 821.294 1115.99 818.544C1110.74 814.417 1102.87 814.663 1098.44 819.095C1095.29 822.242 1095.05 823.281 1095.53 831.729L1096.05 840.934L1076.28 840.921L1056.5 840.907V806.224V771.541H1047.14H1037.78V820.347V869.153H1008.34C983.075 869.153 978.913 868.87 978.913 867.148C978.913 865.429 974.975 865.142 951.489 865.142C928.003 865.142 924.065 865.429 924.065 867.148C924.065 868.891 918.045 869.153 877.912 869.153C837.779 869.153 831.759 868.891 831.759 867.148C831.759 865.428 827.745 865.142 803.666 865.142C779.586 865.142 775.572 865.428 775.572 867.148C775.572 868.883 770.481 869.153 737.781 869.153H699.989V827.1C699.989 794.735 699.594 784.652 698.278 783.336C696.889 781.948 696.637 782.25 696.94 784.94L697.313 788.255L678.919 788.627C661.295 788.984 660.524 788.888 660.524 786.326C660.524 783.809 661.564 783.627 678.25 783.217L695.975 782.781L677.915 782.844L659.856 782.907L659.407 786.249C659.161 788.088 658.409 790.165 657.735 790.863C656.027 792.636 656.135 863.416 657.849 864.473C658.585 864.928 659.187 866.166 659.187 867.226C659.187 868.854 653.884 869.153 625.074 869.153C589.105 869.153 588.589 869.058 593.01 863.215C594.615 861.093 594.974 854.494 594.974 827.033C594.974 799.572 594.615 792.973 593.01 790.851C591.929 789.424 591.026 786.901 591.003 785.247C590.961 782.267 590.775 782.238 571.563 782.238H552.165V776.889V771.541H542.801H533.436V811.655V851.77H529.376C525.776 851.77 525.473 851.477 526.701 849.184C528.507 845.81 528.448 834.283 526.611 831.713C525.459 830.102 525.307 830.298 525.838 832.716C526.358 835.093 525.893 835.742 523.612 835.809C520.847 835.89 520.859 835.946 523.912 837.167C526.729 838.294 527.011 839.065 526.365 843.878C525.964 846.87 525.235 849.716 524.746 850.206C524.257 850.694 516.048 851.266 506.503 851.476C489.603 851.848 489.186 851.789 490.557 849.228C491.332 847.781 491.966 843.521 491.966 839.763C491.966 834.29 491.311 832.274 488.681 829.647C484.34 825.307 477.368 825.242 472.42 829.496C469.371 832.117 468.779 833.696 468.79 839.19C468.797 842.799 469.24 847.108 469.772 848.762C470.711 851.674 470.461 851.77 461.989 851.77H453.237L454.542 848.34C456.267 843.801 456.17 834.229 454.372 831.713C453.22 830.102 453.067 830.298 453.598 832.716C454.119 835.093 453.653 835.742 451.372 835.809C448.607 835.89 448.619 835.946 451.672 837.167C454.489 838.294 454.772 839.065 454.126 843.878C453.724 846.87 452.994 849.719 452.503 850.21C451.339 851.372 436.273 851.372 435.109 850.21C434.618 849.719 433.888 846.87 433.486 843.878C432.84 839.065 433.123 838.294 435.94 837.167C438.993 835.946 439.005 835.89 436.24 835.809C433.987 835.743 433.48 835.065 433.925 832.716C434.458 829.912 434.41 829.889 433.226 832.381C431.532 835.944 431.453 844.088 433.07 848.34L434.375 851.77H426.691H419.005L419.501 841.945C419.975 832.563 419.833 831.991 416.338 829.242C411.704 825.599 405.064 825.554 400.509 829.136C397.375 831.599 396.984 832.831 396.984 840.235C396.984 844.928 397.685 849.262 398.589 850.166C399.838 851.413 398.798 851.77 393.907 851.77H387.62V860.462C387.62 867.296 387.19 869.153 385.613 869.153C384.036 869.153 383.606 867.296 383.606 860.462V851.77H378.166C373.101 851.77 372.797 851.562 373.783 848.762C374.366 847.108 374.847 842.831 374.849 839.261C374.853 833.815 374.254 832.254 371.129 829.567C366.098 825.241 359.157 825.274 354.784 829.647C352.154 832.274 351.5 834.29 351.5 839.763C351.5 843.521 352.123 847.761 352.885 849.184C354.188 851.618 353.757 851.77 345.56 851.77H336.851L338.156 848.34C339.773 844.088 339.694 835.944 338.001 832.381C336.817 829.889 336.768 829.912 337.301 832.716C337.746 835.065 337.239 835.743 334.987 835.809C332.221 835.89 332.233 835.946 335.286 837.167C338.104 838.294 338.386 839.065 337.74 843.878C337.338 846.87 336.608 849.719 336.117 850.21C334.953 851.372 319.887 851.372 318.723 850.21C318.232 849.719 317.502 846.87 317.101 843.878C316.454 839.065 316.737 838.294 319.554 837.167C322.607 835.946 322.619 835.89 319.854 835.809C317.601 835.743 317.094 835.065 317.539 832.716C318.072 829.912 318.024 829.889 316.84 832.381C315.146 835.944 315.067 844.088 316.685 848.34L317.989 851.77H309.237C300.765 851.77 300.515 851.674 301.454 848.762C301.986 847.108 302.429 842.799 302.436 839.19C302.447 833.696 301.855 832.117 298.807 829.496C293.858 825.242 286.886 825.307 282.545 829.647C279.915 832.274 279.26 834.29 279.26 839.763C279.26 843.521 279.884 847.761 280.645 849.184C281.949 851.619 281.516 851.77 273.241 851.77C264.965 851.77 264.532 851.619 265.836 849.184C266.597 847.761 267.221 843.521 267.221 839.763C267.221 834.29 266.566 832.274 263.936 829.647C259.558 825.269 252.623 825.241 247.577 829.58C244.444 832.273 243.834 833.848 243.823 839.275C243.815 842.838 244.302 847.108 244.903 848.762C245.923 851.568 245.63 851.77 240.555 851.77H235.114V806.26V760.75L221.442 761.131L207.769 761.512L206.648 767.195L205.525 772.878H192.306H179.086L177.962 767.195L176.838 761.512L151.797 761.148C131.484 760.853 126.755 760.433 126.755 758.926C126.755 757.799 124.647 756.712 121.404 756.163L116.053 755.259V741.353V727.447L121.404 726.591L126.755 725.735V703.764C126.755 690.37 127.246 682.097 128.014 682.571C128.707 682.999 129.159 681.681 129.017 679.642L128.762 675.934H146.153C163.098 675.934 163.554 676.01 163.966 678.902C164.38 681.813 164.068 681.877 147.576 682.307L130.764 682.744L147.822 682.682L164.881 682.62L165.295 679.04C165.523 677.072 166.576 674.741 167.636 673.863C170.513 671.476 170.48 604.781 167.6 600.974C163.178 595.131 163.695 595.036 199.663 595.036C232.539 595.036 233.776 595.129 233.776 597.631C233.776 599.059 233.174 600.598 232.439 601.053C230.725 602.111 230.617 672.89 232.325 674.664C232.999 675.362 233.751 677.438 233.997 679.277L234.445 682.62L253.534 682.991L272.624 683.362L273.44 679.286C273.888 677.044 274.779 674.885 275.42 674.49C277.097 673.453 276.927 600.384 275.247 600.384C274.511 600.384 273.909 599.181 273.909 597.71C273.909 595.173 274.802 595.036 291.3 595.036C305.55 595.036 308.691 595.383 308.691 596.963C308.691 598.023 308.089 599.261 307.354 599.716C305.605 600.796 305.518 675.265 307.265 675.265C307.952 675.265 308.705 676.919 308.938 678.942L309.36 682.62H328.089H346.818L347.266 679.277C347.512 677.438 348.264 675.362 348.938 674.664C350.646 672.89 350.538 602.111 348.824 601.053C348.089 600.598 347.487 599.059 347.487 597.631C347.487 595.129 348.724 595.036 381.6 595.036C408.698 595.036 415.713 595.393 415.713 596.774C415.713 597.73 415.128 599.097 414.414 599.811C412.677 601.546 412.441 672.262 414.165 674.361C414.875 675.226 415.665 677.438 415.919 679.277L416.382 682.62H435.11H453.839L454.262 678.942C454.495 676.919 455.248 675.265 455.934 675.265C457.681 675.265 457.594 600.796 455.846 599.716C455.11 599.261 454.508 598.023 454.508 596.963C454.508 595.329 460.417 595.036 493.303 595.036H532.099V633.813V672.591H630.425H728.751V651.314V630.037L723.4 629.133L718.048 628.229V612.317V596.405L723.4 595.549L728.751 594.693V530.681V466.668H720.014C714.19 466.668 711.104 467.226 710.76 468.34C710.477 469.26 709.883 471.667 709.439 473.689L708.633 477.366H692.621H676.61L675.754 472.017L674.897 466.668H633.716H592.534L591.629 472.017L590.725 477.366H574.238H557.752L556.845 471.998L555.936 466.63L514.971 466.984L474.005 467.337L472.819 472.351L471.633 477.366H455.846H440.059L438.872 472.351L437.687 467.337L396.721 466.984L355.755 466.63L354.847 471.998L353.94 477.366H337.453H320.967L320.06 471.998L319.151 466.63L278.186 466.984L237.22 467.337L236.034 472.351L234.848 477.366H218.954H203.059L202.253 473.689C201.809 471.667 201.215 469.26 200.931 468.34C200.534 467.051 191.104 466.668 159.689 466.668H118.964L118.059 472.017L117.155 477.366H100.668H84.1817L83.2774 472.017L82.3731 466.668H50.5128H18.6525L17.6692 452.294C16.6806 437.853 17.6304 404.805 19.1033 402.423C19.5662 401.673 32.7579 401.148 51.1322 401.148H82.3731L83.2774 395.799L84.1817 390.45H100.668H117.155L118.059 395.799L118.964 401.148H160.146H201.327L202.184 395.799L203.04 390.45H219.061H235.082L235.938 395.799L236.794 401.148H277.976H319.158L320.062 395.799L320.967 390.45H337.453H353.94L354.844 395.799L355.749 401.148H396.931H438.112L438.969 395.799L439.825 390.45H455.846H471.867L472.723 395.799L473.579 401.148H514.761H555.943L556.847 395.799L557.752 390.45H574.238H590.725L591.629 395.799L592.534 401.148H633.769H675.004L675.909 395.799L676.813 390.45H692.733H708.652L709.508 395.799L710.364 401.148H719.557H728.751V337.633V274.118H455.177C188.72 274.118 181.603 274.052 181.603 271.614C181.603 269.728 180.286 268.9 176.252 268.255L170.901 267.4V251.504V235.606L175.918 234.421L180.935 233.235L181.297 206.876L181.66 180.516H291.88H402.1L403.004 175.168L403.908 169.819H419.828H435.747L436.603 175.168ZM10.369 217.957C10.369 218.692 9.76705 219.294 9.03127 219.294C8.2955 219.294 7.6935 218.692 7.6935 217.957C7.6935 217.221 8.2955 216.62 9.03127 216.62C9.76705 216.62 10.369 217.221 10.369 217.957ZM1705.32 248.122C1705.32 262.543 1704.85 269.976 1703.98 269.438C1703.18 268.943 1702.65 260.064 1702.65 247.295C1702.65 233.976 1703.15 225.98 1703.98 225.98C1704.82 225.98 1705.32 234.252 1705.32 248.122ZM156.52 234.988C152.658 235.258 146.337 235.258 142.474 234.988C138.61 234.718 141.771 234.498 149.497 234.498C157.223 234.498 160.382 234.718 156.52 234.988ZM169.273 252.389L169.652 267.432H166.22C154.195 267.432 139.581 254.292 136.804 240.981L135.888 236.593L152.392 236.97L168.895 237.346L169.273 252.389ZM118.419 323.927L118.779 354.347L114.406 354.377C108.56 354.415 99.0163 358.868 93.5274 364.118C88.8278 368.613 83.9463 376.892 83.9463 380.368C83.9463 382.165 79.8086 382.427 51.3583 382.427H18.7716L17.8017 343.925C16.9455 309.877 17.3281 297.328 19.3294 293.825C19.6491 293.264 41.9952 292.964 68.986 293.156L118.059 293.506L118.419 323.927ZM236.452 323.42V354.002L229.962 354.863C218.586 356.372 207.036 366.292 202.921 378.09L201.408 382.427H169.432H137.457V337.633V292.838H186.954H236.452V323.42ZM355.204 323.927L355.564 354.347L351.191 354.377C345.345 354.415 335.801 358.868 330.312 364.118C325.613 368.613 320.731 376.892 320.731 380.368C320.731 382.167 316.575 382.427 287.956 382.427H255.181V338.525C255.181 314.377 255.589 294.212 256.089 293.714C256.588 293.214 279.013 292.964 305.921 293.156L354.844 293.506L355.204 323.927ZM473.237 323.42V354.002L466.747 354.863C455.371 356.372 443.821 366.292 439.706 378.09L438.193 382.427H406.217H374.242V337.633V292.838H423.739H473.237V323.42ZM592.298 323.592V354.347L587.951 354.36C577.06 354.393 561.942 366.25 558.607 377.376L557.079 382.474L524.856 382.116L492.635 381.759L492.281 338.982C492.086 315.453 492.218 295.447 492.573 294.521C493.076 293.21 504.179 292.838 542.759 292.838H592.298V323.592ZM710.022 323.592C710.022 354.1 709.999 354.347 707.167 354.347C705.597 354.347 701.835 355.076 698.806 355.966C691.743 358.043 678.571 370.83 676.918 377.217L675.74 381.759L643.384 382.117L611.027 382.476V337.657V292.838H660.524H710.022V323.592ZM901.006 337.967L901.359 382.427H868.565H835.772V378.284C835.772 369.481 826.658 357.399 817.528 354.098L813.03 352.472V322.636V292.802L856.842 293.153L900.654 293.506L901.006 337.967ZM1005.36 325.911L1005 358.983L1000.32 359.769C990.734 361.378 981.542 368.843 977.684 378.154L975.913 382.427H945.307H914.7V337.633V292.838H960.207H1005.72L1005.36 325.911ZM1235.76 323.592V354.347H1231.34C1220.76 354.347 1205.35 366.46 1202.08 377.353L1200.56 382.427H1116.49H1032.42V337.633V292.838H1134.09H1235.76V323.592ZM1459.17 323.592V354.347L1455.49 354.406C1444.56 354.58 1432.73 363.04 1427.39 374.507L1423.72 382.399L1339.78 382.414L1255.83 382.427V338.525C1255.83 314.377 1256.23 294.219 1256.72 293.73C1257.21 293.239 1302.96 292.838 1358.39 292.838H1459.17V323.592ZM1682.58 323.592C1682.58 354.1 1682.56 354.347 1679.72 354.347C1678.15 354.347 1674.39 355.076 1671.36 355.966C1664.38 358.02 1651.53 370.483 1649.24 377.433L1647.59 382.427H1564.08H1480.58V337.633V292.838H1581.58H1682.58V323.592ZM6.35574 320.918C6.35574 337.856 6.04404 340.976 4.34908 340.976C2.65413 340.976 2.34243 337.856 2.34243 320.918C2.34243 303.98 2.65413 300.861 4.34908 300.861C6.04404 300.861 6.35574 303.98 6.35574 320.918ZM15.7201 320.918C15.7201 333.398 15.2144 340.976 14.3823 340.976C13.5503 340.976 13.0446 333.398 13.0446 320.918C13.0446 308.438 13.5503 300.861 14.3823 300.861C15.2144 300.861 15.7201 308.438 15.7201 320.918ZM8.68345 329.275C8.42259 333.873 8.20855 330.111 8.20855 320.918C8.20855 311.725 8.42259 307.965 8.68345 312.561C8.94566 317.158 8.94566 324.68 8.68345 329.275ZM11.359 329.275C11.0981 333.873 10.8841 330.111 10.8841 320.918C10.8841 311.725 11.0981 307.965 11.359 312.561C11.6212 317.158 11.6212 324.68 11.359 329.275ZM1827.41 311.181C1829.45 311.487 1832.45 311.479 1834.1 311.162C1835.75 310.845 1834.08 310.594 1830.4 310.603C1826.72 310.614 1825.38 310.873 1827.41 311.181ZM1838.55 312.561C1839.17 315.277 1845.79 391.02 1845.79 395.385C1845.79 397.782 1844.88 398.407 1840.77 398.837C1835.8 399.356 1835.8 399.363 1841.64 399.586L1847.52 399.811L1846.68 388.779C1843.8 350.735 1839.83 310.221 1838.99 310.221C1838.45 310.221 1838.25 311.275 1838.55 312.561ZM1814.02 312.541C1817.72 312.834 1820.4 313.708 1820.43 314.64C1820.47 315.519 1822.19 334.891 1824.25 357.69C1826.32 380.489 1827.93 399.262 1827.83 399.408C1827.72 399.554 1824.36 399.855 1820.35 400.077L1813.05 400.479L1809.46 360.364C1807.48 338.301 1805.82 318.495 1805.76 316.349C1805.7 314.204 1805.31 312.791 1804.89 313.208C1803.93 314.178 1811.15 400.133 1812.31 401.501C1812.79 402.062 1818.26 401.991 1824.47 401.344C1830.68 400.696 1834.41 400.086 1832.77 399.988C1828.97 399.762 1829.13 400.713 1825.73 359.696C1824.18 340.942 1822.55 322.438 1822.12 318.578L1821.34 311.558L1814.5 311.799L1807.66 312.039L1814.02 312.541ZM10.369 339.638C10.369 340.374 9.76705 340.976 9.03127 340.976C8.2955 340.976 7.6935 340.374 7.6935 339.638C7.6935 338.903 8.2955 338.301 9.03127 338.301C9.76705 338.301 10.369 338.903 10.369 339.638ZM822.314 358.816C827.749 362.41 832.303 368.722 833.806 374.739L834.725 378.416H820.532H806.341V366.605C806.341 360.108 806.673 354.462 807.077 354.057C808.444 352.69 817.178 355.418 822.314 358.816ZM114.715 372.399V389.113H99.1821H83.648L84.5804 384.146C87.1917 370.237 100.469 357.316 113.712 355.799C114.263 355.736 114.715 363.206 114.715 372.399ZM117.043 380.087C116.782 384.685 116.568 380.923 116.568 371.73C116.568 362.537 116.782 358.777 117.043 363.373C117.305 367.97 117.305 375.492 117.043 380.087ZM232.439 372.399V389.113H217.723H203.008V385.364C203.008 379.768 209.278 368.262 214.834 363.66C218.764 360.407 223.904 358.062 232.104 355.778C232.287 355.726 232.439 363.206 232.439 372.399ZM351.5 372.399V389.113H335.967H320.433L321.365 384.146C323.977 370.237 337.254 357.316 350.497 355.799C351.049 355.736 351.5 363.206 351.5 372.399ZM353.828 380.087C353.567 384.685 353.353 380.923 353.353 371.73C353.353 362.537 353.567 358.777 353.828 363.373C354.09 367.97 354.09 375.492 353.828 380.087ZM469.224 372.399V389.113H454.508H439.793V385.364C439.793 379.768 446.063 368.262 451.619 363.66C455.549 360.407 460.689 358.062 468.889 355.778C469.072 355.726 469.224 363.206 469.224 372.399ZM588.285 372.443V389.202L573.235 388.823L558.185 388.445L558.647 383.786C559.907 371.079 573.982 357.322 587.282 355.799C587.834 355.736 588.285 363.226 588.285 372.443ZM590.613 380.087C590.352 384.685 590.138 380.923 590.138 371.73C590.138 362.537 590.352 358.777 590.613 363.373C590.875 367.97 590.875 375.492 590.613 380.087ZM707.057 373.18L706.677 388.445L691.45 388.824L676.222 389.204L677.106 383.67C678.307 376.167 681.047 371.245 687.522 364.966C692.885 359.763 704.216 354.949 706.388 356.949C706.966 357.48 707.267 364.785 707.057 373.18ZM1231.75 372.399V389.113H1217.11C1209.06 389.113 1202.21 388.663 1201.89 388.11C1201.57 387.558 1202.05 384.227 1202.96 380.707C1204.65 374.125 1209.96 366.451 1215.85 362.053C1218.84 359.827 1228.11 355.897 1230.75 355.743C1231.3 355.711 1231.75 363.206 1231.75 372.399ZM1455.16 372.399V389.113H1440.44H1425.73L1425.74 385.436C1425.76 379.541 1431.64 368.556 1437.26 363.902C1441.43 360.45 1446.55 358.08 1454.82 355.778C1455.01 355.726 1455.16 363.206 1455.16 372.399ZM1679.61 373.18L1679.23 388.445L1664.19 388.823L1649.14 389.202V385.408C1649.14 379.546 1655.46 368.232 1661.34 363.579C1666.92 359.157 1677.17 355.298 1678.95 356.944C1679.52 357.479 1679.83 364.785 1679.61 373.18ZM1234.08 380.035C1233.82 384.661 1233.6 381.224 1233.6 372.399C1233.6 363.574 1233.81 359.789 1234.08 363.989C1234.34 368.189 1234.34 375.41 1234.08 380.035ZM1002.32 375.184V388.445L989.95 388.83L977.576 389.214V385.908C977.576 380.771 980.021 375.49 984.68 370.564C988.972 366.029 998.498 360.739 1000.99 361.51C1001.76 361.75 1002.32 367.513 1002.32 375.184ZM6.05608 433.242C5.58117 459.073 3.15446 460.306 2.63674 434.979C2.2528 416.133 2.57387 413.182 5.01128 413.182C5.95842 413.182 6.30356 419.801 6.05608 433.242ZM10.369 414.519C10.369 415.255 9.76705 415.856 9.03127 415.856C8.2955 415.856 7.6935 415.255 7.6935 414.519C7.6935 413.784 8.2955 413.182 9.03127 413.182C9.76705 413.182 10.369 413.784 10.369 414.519ZM15.7201 433.908C15.7201 446.834 15.2171 454.634 14.3823 454.634C13.5476 454.634 13.0446 446.834 13.0446 433.908C13.0446 420.982 13.5476 413.182 14.3823 413.182C15.2171 413.182 15.7201 420.982 15.7201 433.908ZM8.68613 442.209C8.42928 447.205 8.21523 443.469 8.2139 433.908C8.21122 424.347 8.42259 420.261 8.68212 424.826C8.94298 429.392 8.94432 437.215 8.68613 442.209ZM11.3603 441.545C11.0995 446.17 10.8827 442.733 10.8801 433.908C10.8774 425.083 11.0914 421.299 11.3563 425.499C11.6212 429.699 11.6225 436.919 11.3603 441.545ZM1705.32 456.05C1705.32 468.242 1704.85 474.559 1703.98 474.023C1703.21 473.541 1702.65 466.06 1702.65 456.116C1702.65 441.121 1703.1 437.251 1704.88 437.251C1705.12 437.251 1705.32 445.711 1705.32 456.05ZM10.369 453.297C10.369 454.032 9.76705 454.634 9.03127 454.634C8.2955 454.634 7.6935 454.032 7.6935 453.297C7.6935 452.561 8.2955 451.96 9.03127 451.96C9.76705 451.96 10.369 452.561 10.369 453.297ZM114.715 496.086C114.715 514.496 114.849 514.348 103.249 508.948C94.9789 505.098 88.5415 497.626 85.9142 488.823C84.8319 485.196 83.9463 481.737 83.9463 481.134C83.9463 480.532 90.8693 480.04 99.3306 480.04H114.715V496.086ZM117.043 504.443C116.782 509.04 116.568 505.279 116.568 496.086C116.568 486.893 116.782 483.133 117.043 487.729C117.305 492.326 117.305 499.847 117.043 504.443ZM232.439 496.192V512.344L228.091 511.408C221.698 510.033 217.65 507.619 212.103 501.879C206.721 496.309 203.008 488.774 203.008 483.426V480.04H217.723H232.439V496.192ZM351.5 496.086C351.5 514.188 351.491 514.202 341.467 509.635C330.644 504.704 323.816 496.107 321.411 484.386L320.519 480.04H336.01H351.5V496.086ZM353.828 504.443C353.567 509.04 353.353 505.279 353.353 496.086C353.353 486.893 353.567 483.133 353.828 487.729C354.09 492.326 354.09 499.847 353.828 504.443ZM469.224 496.192V512.344L464.876 511.426C452.833 508.88 439.793 494.322 439.793 483.426V480.04H454.508H469.224V496.192ZM588.285 496.086C588.285 510.658 588.063 512.132 585.872 512.132C581.231 512.132 569.579 505.191 565.429 499.954C561.891 495.488 557.516 485.103 557.516 481.165C557.516 480.546 564.439 480.04 572.901 480.04H588.285V496.086ZM590.613 504.443C590.352 509.04 590.138 505.279 590.138 496.086C590.138 486.893 590.352 483.133 590.613 487.729C590.875 492.326 590.875 499.847 590.613 504.443ZM707.346 496.086C707.346 513.555 707.595 513.115 699.13 510.579C688.757 507.473 676.633 492.664 676.591 483.049C676.578 480.103 676.896 480.04 691.962 480.04H707.346V496.086ZM1002.99 493.412C1002.99 505.978 1002.83 506.783 1000.26 506.783C996.538 506.783 988.225 502.373 984.755 498.556C980.751 494.152 977.576 487.469 977.576 483.45V480.04H990.284H1002.99V493.412ZM1231.75 496.086C1231.75 514.194 1231.75 514.198 1221.69 509.63C1211.57 505.034 1202.42 492.781 1202.35 483.717L1202.32 480.04H1217.04H1231.75V496.086ZM1234.08 504.443C1233.82 509.04 1233.6 505.279 1233.6 496.086C1233.6 486.893 1233.82 483.133 1234.08 487.729C1234.34 492.326 1234.34 499.847 1234.08 504.443ZM1455.16 496.192V512.344L1450.81 511.408C1444.42 510.033 1440.37 507.619 1434.82 501.879C1429.44 496.309 1425.73 488.774 1425.73 483.426V480.04H1440.44H1455.16V496.192ZM1679.9 496.253V512.466L1675.78 511.642C1664.83 509.452 1653.72 499.719 1650.71 489.658C1647.75 479.773 1647.36 480.04 1664.52 480.04H1679.9V496.253ZM84.0065 489.066C88.983 502.8 99.4644 511.835 113.043 514.095L118.728 515.042V545.01V574.978H68.562H18.3957V531.075C18.3957 506.928 18.797 486.77 19.2879 486.281C19.7776 485.79 34.2402 485.389 51.4265 485.389H82.6754L84.0065 489.066ZM202.901 490.403C206.926 501.824 217.433 511.049 229.192 513.489L236.452 514.996V544.987V574.978H186.954H137.457V530.184V485.389H169.295H201.132L202.901 490.403ZM320.792 489.066C325.768 502.8 336.249 511.835 349.828 514.095L355.513 515.042V545.01V574.978H305.347H255.181V531.075C255.181 506.928 255.582 486.77 256.073 486.281C256.563 485.79 271.025 485.389 288.211 485.389H319.46L320.792 489.066ZM440.341 491.608C445.184 503.376 454.13 510.932 466.313 513.544L473.237 515.028V545.003V574.978H423.739H374.242V530.184V485.389L406.014 485.394L437.786 485.398L440.341 491.608ZM557.516 487.448C557.516 491.405 562.689 499.593 568.672 505.105C574.66 510.621 587.929 516.01 590.943 514.148C591.843 513.592 592.298 523.669 592.298 544.161V575.01L542.466 574.66L492.635 574.31L492.281 531.533C492.086 508.004 492.218 487.997 492.573 487.072C493.068 485.783 500.765 485.389 525.368 485.389C553.423 485.389 557.516 485.651 557.516 487.448ZM676.543 489.963C680.36 501.524 691.059 510.963 703.326 513.592L710.022 515.028V545.003V574.978H660.524H611.027V530.184V485.389H643.029H675.033L676.543 489.963ZM903.998 530.184V574.978H858.514H813.03V545.764V516.55L818.265 514.19C827.617 509.975 835.772 498.863 835.772 490.335C835.772 488.595 836.173 486.77 836.664 486.281C837.154 485.79 852.505 485.389 870.777 485.389H903.998V530.184ZM978.927 492.429C982.808 500.516 992.073 507.627 1000.48 508.971L1005.67 509.8V542.389V574.978H962.191H918.714V530.184V485.389L947.141 485.409L975.569 485.427L978.927 492.429ZM1202.2 490.868C1204 496.866 1212.76 507.223 1218.57 510.229C1220.6 511.275 1225.29 512.783 1229.01 513.58L1235.76 515.028V545.003V574.978H1134.09H1032.42V531.075C1032.42 506.928 1032.83 486.77 1033.32 486.281C1033.81 485.79 1071.64 485.389 1117.38 485.389H1200.56L1202.2 490.868ZM1425.04 489.323C1427.28 499.513 1440.09 511.037 1451.91 513.489L1459.17 514.996V544.987V574.978H1357.5H1255.83V531.075C1255.83 506.928 1256.23 486.77 1256.72 486.281C1257.21 485.79 1295.09 485.389 1340.9 485.389H1424.18L1425.04 489.323ZM1649.1 489.963C1652.94 501.587 1663.44 510.942 1675.56 513.528L1682.58 515.028V545.003V574.978H1581.58H1480.58V530.184V485.389H1564.08H1647.59L1649.1 489.963ZM834.434 490.78C834.434 493.805 830.077 502.318 826.671 505.949C822.603 510.285 813.877 514.733 809.351 514.777C806.455 514.805 806.341 514.361 806.341 502.995C806.341 496.498 806.742 490.781 807.233 490.292C808.734 488.79 834.434 489.252 834.434 490.78ZM163.972 596.707C163.557 599.619 163.008 599.728 146.931 600.093C130.193 600.473 127.029 599.733 128.542 595.794C129.216 594.04 132.194 593.699 146.872 593.699C164.282 593.699 164.396 593.719 163.972 596.707ZM271.903 597.041C271.903 599.558 270.886 599.739 254.62 600.092C237.177 600.471 234.043 599.757 235.578 595.755C236.282 593.922 238.904 593.673 254.151 593.994C270.886 594.346 271.903 594.521 271.903 597.041ZM346.149 596.373C346.149 598.915 345.257 599.047 328.089 599.047C310.921 599.047 310.029 598.915 310.029 596.373C310.029 593.831 310.921 593.699 328.089 593.699C345.257 593.699 346.149 593.831 346.149 596.373ZM453.17 596.373C453.17 598.915 452.278 599.047 435.11 599.047C417.943 599.047 417.051 598.915 417.051 596.373C417.051 593.831 417.943 593.699 435.11 593.699C452.278 593.699 453.17 593.831 453.17 596.373ZM816.374 631.139V667.911L807.344 668.307L798.315 668.701V631.139V593.577L807.344 593.971L816.374 594.367V631.139ZM1128.43 628.13L1128.79 661.894H1110.04H1091.29V627.759V593.624L1109.68 593.995L1128.07 594.367L1128.43 628.13ZM1232.42 627.796V661.225H1213.69H1194.96L1194.6 628.558C1194.33 603.325 1194.63 595.643 1195.94 594.795C1196.87 594.191 1205.46 593.848 1215.03 594.032L1232.42 594.367V627.796ZM108.026 660.539V726.041L103.678 727.862C93.6531 732.061 85.2841 743.304 85.2841 752.574V756.832H96.6551C105.871 756.832 108.026 757.212 108.026 758.838C108.026 760.58 102.179 760.843 63.4289 760.843H18.8318L17.9662 697.663C17.49 662.914 17.4846 625.607 17.9555 614.759L18.8117 595.036H63.4196H108.026V660.539ZM682.553 599.95C684.277 609.131 687.565 615.101 694.164 621.033C697.787 624.287 702.837 627.638 705.386 628.479L710.022 630.009V641.272V652.534H631.762H553.503V623.785V595.036H617.567H681.63L682.553 599.95ZM1655.11 599.95C1656.83 609.131 1660.12 615.101 1666.72 621.033C1670.34 624.287 1675.39 627.638 1677.94 628.479L1682.58 630.009V645.134V660.258L1652.81 660.996C1613.36 661.973 1538.41 661.993 1506.33 661.034L1480.58 660.264V645.805V631.346L1485.54 629.708C1488.28 628.807 1493.65 624.928 1497.5 621.088C1502.88 615.711 1504.99 612.361 1506.69 606.506C1507.91 602.325 1508.57 598.034 1508.16 596.971C1507.52 595.296 1517.32 595.036 1580.8 595.036H1654.19L1655.11 599.95ZM1867.76 598.044C1868.1 599.7 1873.24 658.216 1879.19 728.083C1885.13 797.95 1890.35 858.271 1890.78 862.133L1891.58 869.153H1797.11H1702.65V863.805C1702.65 859.942 1703.2 858.456 1704.65 858.456C1706.35 858.456 1706.66 855.336 1706.66 838.399C1706.66 821.461 1706.35 818.341 1704.65 818.341C1702.9 818.341 1702.65 809.983 1702.64 751.149C1702.64 714.193 1702.24 671.809 1701.76 656.961L1700.89 629.966L1695.75 629.099L1690.61 628.229V612.399C1690.61 598.447 1690.88 596.496 1692.95 595.957C1694.24 595.621 1733.96 595.276 1781.21 595.191L1867.14 595.036L1867.76 598.044ZM716.711 613.756V628.465L713.032 628.435C701.658 628.344 684.604 612.352 684.604 601.775C684.604 599.181 685.392 599.047 700.657 599.047H716.711V613.756ZM1176.23 600.096C1167.55 601.899 1164.41 613.998 1170.82 620.915C1173.44 623.745 1175.25 624.426 1179.85 624.319C1184.39 624.215 1184.9 623.993 1182.29 623.266C1177.89 622.041 1175.99 614.423 1177.95 605.871C1178.73 602.488 1179.26 599.68 1179.13 599.63C1179.01 599.579 1177.71 599.789 1176.23 600.096ZM1248.29 601.053C1249.83 605.06 1250.47 614.753 1249.43 618.396C1248.71 620.936 1247.13 622.695 1245.04 623.277C1242.24 624.06 1242.44 624.204 1246.5 624.319L1251.22 624.453L1251.11 613.087C1251 600.999 1252.34 598.871 1256.42 604.694C1258.83 608.132 1259.12 613.99 1257.1 618.19C1255.73 621.011 1255.76 621.022 1257.76 618.515C1262.49 612.623 1258.46 601.453 1251.1 600.047C1248.71 599.59 1247.84 599.898 1248.29 601.053ZM1689.27 613.927V628.807L1683.78 627.928C1680.76 627.446 1676.69 626.217 1674.75 625.198C1666.65 620.959 1657.16 608.32 1657.16 601.775C1657.16 599.181 1657.95 599.047 1673.22 599.047H1689.27V613.927ZM455.846 637.156V673.928H450.495H445.144V637.905V601.883L450.16 601.358C452.92 601.07 455.328 600.733 455.511 600.609C455.695 600.486 455.846 616.932 455.846 637.156ZM1182 601.298C1182.97 601.684 1184.12 601.636 1184.57 601.192C1185.01 600.748 1184.22 600.433 1182.81 600.49C1181.25 600.554 1180.94 600.871 1182 601.298ZM1243.54 601.298C1244.51 601.684 1245.66 601.636 1246.1 601.192C1246.55 600.748 1245.76 600.433 1244.35 600.49C1242.79 600.554 1242.47 600.871 1243.54 601.298ZM1505.99 602.433C1505.99 613.355 1489.02 629.682 1477.57 629.772L1473.89 629.802V615.093V600.384H1489.94C1503.47 600.384 1505.99 600.707 1505.99 602.433ZM137.457 637.825V673.928H132.106H126.755V637.825V601.722H132.106H137.457V637.825ZM167.91 633.813C168.104 651.096 167.926 667.191 167.514 669.582L166.766 673.928H152.781H138.795V637.779V601.631L153.176 602.01L167.557 602.39L167.91 633.813ZM181.531 603.66C179.561 605.638 179.882 673.009 181.871 674.998C184.292 677.418 218.226 677.214 220.258 674.767C221.334 673.471 221.678 662.736 221.425 638.329L221.068 603.727L201.932 603.059C190.661 602.666 182.276 602.912 181.531 603.66ZM261.869 637.87V674.019L247.488 673.639L233.107 673.26L232.752 637.491L232.394 601.722H247.133H261.869V637.87ZM274.934 637.491L274.578 673.26H269.227H263.876L263.52 637.491L263.163 601.722H269.227H275.291L274.934 637.491ZM318.056 637.825V673.928H312.705H307.354V637.825V601.722H312.705H318.056V637.825ZM348.511 637.491L348.156 673.26L333.809 673.639L319.464 674.018V637.87V601.722H334.167H348.869L348.511 637.491ZM363.094 602.613C362.603 603.103 362.202 619.639 362.202 639.36V675.214L365.212 675.961C366.868 676.371 375.747 676.533 384.944 676.32L401.666 675.934L402.023 639.92C402.219 620.111 401.918 603.444 401.355 602.878C400.79 602.314 400.506 618.387 400.723 638.596L401.119 675.341L382.663 674.97L364.209 674.597V638.158C364.209 618.118 364.158 601.72 364.098 601.72C364.036 601.722 363.584 602.123 363.094 602.613ZM443.759 637.825L443.762 673.928H429.068H414.375V637.825V601.722H429.066H443.757L443.759 637.825ZM1072.48 606.743C1071.86 609.504 1071.86 614.019 1072.48 616.778C1073.8 622.613 1072.78 623.793 1068.82 621.017C1062.84 616.829 1064.63 601.722 1071.11 601.722C1073.31 601.722 1073.47 602.329 1072.48 606.743ZM1151.71 603.935C1155.25 607.132 1154.99 616.041 1151.25 620.022C1149.65 621.723 1147.98 623.116 1147.54 623.116C1147.09 623.116 1146.75 618.302 1146.77 612.42C1146.79 606.537 1147.36 601.723 1148.04 601.723C1148.71 601.722 1150.37 602.718 1151.71 603.935ZM1176.27 612.419C1176.27 623.226 1176.08 623.866 1173.42 622.093C1168.85 619.039 1167.51 609.611 1170.96 604.694C1174.9 599.063 1176.27 601.049 1176.27 612.419ZM220.087 639.496L219.73 674.597L201.774 674.971C188.307 675.252 183.546 674.918 182.731 673.634C182.133 672.693 181.635 656.73 181.623 638.159L181.603 604.396H201.024H220.443L220.087 639.496ZM1290.17 611.974C1288.93 613.209 1289.04 677.636 1290.28 678.402C1290.83 678.743 1291.28 664.187 1291.28 646.055V613.087L1302.32 612.7L1313.36 612.31V645.737V679.164L1302.99 679.595C1297.28 679.833 1330.24 680.02 1376.23 680.012L1459.84 679.999L1388.27 679.303L1316.7 678.608L1316.32 662.228L1315.95 645.848L1387.89 645.536L1459.84 645.225L1387.6 644.504C1347.87 644.108 1315.18 643.647 1314.96 643.478C1314.73 643.311 1314.65 636.613 1314.78 628.596C1314.91 620.577 1314.6 613.356 1314.1 612.55C1313.12 610.963 1291.69 610.446 1290.17 611.974ZM959.516 640.499V667.911L950.486 668.307L941.456 668.701V640.499V612.297L950.486 612.692L959.516 613.087V640.499ZM6.04805 648.188C5.82197 665.552 5.18653 675.934 4.34908 675.934C3.51164 675.934 2.8762 665.552 2.65012 648.188C2.33307 623.934 2.54711 620.442 4.34908 620.442C6.15106 620.442 6.3651 623.934 6.04805 648.188ZM10.369 621.779C10.369 622.514 9.76705 623.116 9.03127 623.116C8.2955 623.116 7.6935 622.514 7.6935 621.779C7.6935 621.043 8.2955 620.442 9.03127 620.442C9.76705 620.442 10.369 621.043 10.369 621.779ZM15.7201 648.522C15.7201 666.35 15.2318 676.602 14.3823 676.602C13.5329 676.602 13.0446 666.35 13.0446 648.522C13.0446 630.694 13.5329 620.442 14.3823 620.442C15.2318 620.442 15.7201 630.694 15.7201 648.522ZM8.69014 660.891C8.44801 667.693 8.24868 662.128 8.24868 648.522C8.24868 634.916 8.44801 629.351 8.69014 636.153C8.93362 642.955 8.93362 654.089 8.69014 660.891ZM11.3657 660.222C11.1195 666.658 10.9189 661.392 10.9189 648.522C10.9189 635.652 11.1195 630.388 11.3657 636.822C11.6105 643.258 11.6105 653.788 11.3657 660.222ZM1144.12 632.074C1145.92 636.406 1146.4 646.44 1144.98 650.104C1143.95 652.78 1142.47 653.829 1139.18 654.236C1136.1 654.616 1136.91 654.844 1141.85 654.994C1151.25 655.277 1155.5 651.475 1155.5 642.77C1155.5 635.992 1152.72 632.038 1146.97 630.616C1143.61 629.788 1143.25 629.974 1144.12 632.074ZM1175.57 630.746C1174.46 631.15 1172.2 632.712 1170.55 634.217C1166.91 637.529 1166.48 646.427 1169.77 650.528L1171.91 653.202L1170.86 650.528C1168.63 644.874 1168.6 639.118 1170.77 635.81C1174.84 629.599 1176.24 631.632 1176.16 643.635L1176.09 654.795L1180.84 654.854C1184.75 654.902 1185.02 654.752 1182.34 654.016C1177.25 652.619 1175.5 641.166 1178.99 632.082C1179.88 629.752 1179.11 629.45 1175.57 630.746ZM1248.37 632.321C1251.49 643.028 1250.04 652.642 1245.08 654.022C1242.21 654.824 1242.39 654.958 1246.5 655.074L1251.22 655.208L1251.11 643.842C1251 631.754 1252.34 629.625 1256.42 635.449C1258.83 638.886 1259.12 644.745 1257.1 648.945C1255.73 651.766 1255.76 651.777 1257.76 649.27C1262.47 643.397 1258.46 632.209 1251.15 630.811C1248.47 630.301 1247.87 630.627 1248.37 632.321ZM1151.71 634.689C1155.25 637.886 1154.99 646.796 1151.25 650.776C1149.65 652.477 1147.98 653.871 1147.54 653.871C1147.09 653.871 1146.75 649.057 1146.77 643.175C1146.79 637.291 1147.36 632.478 1148.04 632.478C1148.71 632.476 1150.37 633.472 1151.71 634.689ZM1859.46 634.727C1860.8 635.081 1862.04 637.089 1862.44 639.586C1863.88 648.533 1869.69 721.262 1869.05 722.306C1868.68 722.91 1869.08 723.403 1869.94 723.403C1871.05 723.403 1871.28 721.314 1870.72 716.383C1870.29 712.521 1868.69 694.32 1867.18 675.934C1863.64 632.951 1863.78 633.776 1860.11 633.968C1857.91 634.083 1857.75 634.277 1859.46 634.727ZM1843.82 638.828C1844.6 643.283 1851.14 717.249 1851.14 721.634C1851.14 724.507 1850.59 724.74 1843.78 724.74C1838.79 724.74 1836.42 724.201 1836.41 723.069C1836.4 722.15 1834.89 704.574 1833.06 684.012C1828.64 634.347 1828.45 638.104 1835.42 637.424C1840.52 636.925 1840.42 636.883 1834.42 637.012C1827.83 637.154 1827.73 637.219 1828.05 641.168C1831.82 687.349 1835.48 725.564 1836.19 726.127C1836.68 726.521 1844.01 726.159 1852.48 725.32C1864.24 724.156 1866.05 723.751 1860.17 723.6C1853.74 723.435 1852.48 723.01 1852.48 721.008C1852.48 719.69 1850.98 701.789 1849.15 681.228C1844.83 632.762 1844.68 636.764 1850.8 636.124C1855.43 635.641 1855.32 635.582 1849.5 635.375C1843.3 635.154 1843.19 635.22 1843.82 638.828ZM842.795 652.084C837.344 652.86 837.163 655.018 842.461 656.077C844.668 656.518 846.474 657.707 846.474 658.718C846.474 661.257 856.997 661.242 857.972 658.701C858.364 657.68 860.565 656.469 862.863 656.01C869.378 654.708 865.575 652.55 855.744 651.971C851.013 651.692 845.187 651.743 842.795 652.084ZM893.631 652.084C888.179 652.86 887.999 655.018 893.296 656.077C895.503 656.518 897.309 657.707 897.309 658.718C897.309 661.367 907.472 661.214 908.496 658.551C908.919 657.448 910.453 656.545 911.904 656.545C914.474 656.545 916.921 654.308 915.693 653.08C914.741 652.127 898.48 651.393 893.631 652.084ZM1560.84 665.237C1560.84 666.955 1556.9 667.242 1533.42 667.242C1509.93 667.242 1505.99 666.955 1505.99 665.237C1505.99 663.518 1509.93 663.231 1533.42 663.231C1556.9 663.231 1560.84 663.518 1560.84 665.237ZM1653.15 665.237C1653.15 666.955 1649.21 667.242 1625.72 667.242C1602.24 667.242 1598.3 666.955 1598.3 665.237C1598.3 663.518 1602.24 663.231 1625.72 663.231C1649.21 663.231 1653.15 663.518 1653.15 665.237ZM1508.67 669.838C1508.67 670.53 1508.07 671.468 1507.33 671.922C1506.6 672.377 1505.99 671.81 1505.99 670.664C1505.99 669.518 1506.6 668.579 1507.33 668.579C1508.07 668.579 1508.67 669.145 1508.67 669.838ZM1545.06 669.577C1538.21 669.82 1527.38 669.819 1520.98 669.574C1514.58 669.33 1520.17 669.13 1533.42 669.132C1546.66 669.133 1551.9 669.334 1545.06 669.577ZM1560.42 671.505C1559.99 672.571 1559.67 672.254 1559.61 670.696C1559.55 669.287 1559.87 668.498 1560.31 668.942C1560.76 669.386 1560.81 670.54 1560.42 671.505ZM1599.21 671.505C1598.79 672.571 1598.47 672.254 1598.41 670.696C1598.35 669.287 1598.66 668.498 1599.11 668.942C1599.55 669.386 1599.6 670.54 1599.21 671.505ZM1637.36 669.577C1630.52 669.82 1619.68 669.819 1613.28 669.574C1606.88 669.33 1612.48 669.13 1625.72 669.132C1638.97 669.133 1644.21 669.334 1637.36 669.577ZM1653.15 670.585C1653.15 671.688 1652.55 672.591 1651.81 672.591C1651.07 672.591 1650.47 671.688 1650.47 670.585C1650.47 669.482 1651.07 668.579 1651.81 668.579C1652.55 668.579 1653.15 669.482 1653.15 670.585ZM1545.06 672.251C1538.21 672.495 1527.38 672.493 1520.98 672.249C1514.58 672.004 1520.17 671.805 1533.42 671.806C1546.66 671.807 1551.9 672.008 1545.06 672.251ZM1637.36 672.251C1630.52 672.495 1619.68 672.493 1613.28 672.249C1606.88 672.004 1612.48 671.805 1625.72 671.806C1638.97 671.807 1644.21 672.008 1637.36 672.251ZM10.369 675.265C10.369 676.001 9.76705 676.602 9.03127 676.602C8.2955 676.602 7.6935 676.001 7.6935 675.265C7.6935 674.53 8.2955 673.928 9.03127 673.928C9.76705 673.928 10.369 674.53 10.369 675.265ZM1560.84 675.934C1560.84 677.652 1556.9 677.94 1533.42 677.94C1509.93 677.94 1505.99 677.652 1505.99 675.934C1505.99 674.216 1509.93 673.928 1533.42 673.928C1556.9 673.928 1560.84 674.216 1560.84 675.934ZM1652.82 675.6C1652.4 676.847 1645.41 677.363 1625.28 677.633C1601.87 677.948 1598.3 677.726 1598.3 675.962C1598.3 674.208 1602.08 673.928 1625.84 673.928C1647.27 673.928 1653.25 674.298 1652.82 675.6ZM271.903 678.608C271.903 681.125 270.886 681.305 254.62 681.658C237.177 682.038 234.043 681.324 235.578 677.322C236.282 675.489 238.904 675.24 254.151 675.561C270.886 675.912 271.903 676.088 271.903 678.608ZM345.908 678.274C345.489 681.218 345.105 681.282 328.089 681.282C311.073 681.282 310.689 681.218 310.27 678.274C309.845 675.28 309.933 675.265 328.089 675.265C346.245 675.265 346.334 675.28 345.908 678.274ZM452.93 678.274C452.511 681.218 452.127 681.282 435.11 681.282C418.094 681.282 417.71 681.218 417.291 678.274C416.866 675.28 416.954 675.265 435.11 675.265C453.267 675.265 453.355 675.28 452.93 678.274ZM1385.07 710.81C1384.62 711.973 1384.26 717.917 1384.26 724.017C1384.26 736.779 1383.14 738.508 1375.34 737.864C1370.59 737.471 1370.19 737.104 1369.43 732.429C1368.99 729.672 1369 725.159 1369.45 722.4C1370.27 717.446 1370.35 717.386 1376.47 717.386C1379.88 717.386 1382.39 716.935 1382.05 716.383C1381.16 714.951 1365.84 715.138 1364.94 716.593C1364.52 717.259 1365.32 717.509 1366.71 717.146C1368.98 716.553 1369.13 717.018 1368.23 721.951C1367.68 724.955 1367.67 729.821 1368.2 732.763C1369.39 739.264 1367.18 739.961 1362.84 734.449C1359.98 730.819 1359.75 726.489 1362.07 720.06C1362.69 718.346 1362.3 718.585 1360.99 720.729C1359.86 722.567 1358.91 725.455 1358.89 727.147C1358.82 731.72 1362.41 737.788 1365.85 738.901C1370.01 740.249 1380.45 739.604 1382.54 737.871C1383.89 736.753 1384.26 737.574 1384.26 741.689V746.93L1375.46 746.37C1370.25 746.038 1366.07 746.391 1365.23 747.235C1364.22 748.243 1364.6 748.452 1366.51 747.95C1369.02 747.297 1369.15 747.656 1368.23 752.705C1367.68 755.71 1367.67 760.576 1368.2 763.518C1369.39 770.019 1367.18 770.716 1362.84 765.204C1359.98 761.573 1359.75 757.244 1362.07 750.815C1362.69 749.1 1362.3 749.34 1360.99 751.483C1358.36 755.769 1358.32 759.972 1360.87 764.902C1363.28 769.551 1367.08 770.738 1376.96 769.92C1384.1 769.328 1384.26 769.389 1384.26 772.835C1384.26 778.927 1386.17 779.564 1404.48 779.564C1413.84 779.564 1422.45 779.199 1423.61 778.752C1425.06 778.194 1425.73 776.225 1425.73 772.467C1425.73 768.211 1426.09 767.351 1427.33 768.599C1428.23 769.498 1432.54 770.204 1437.13 770.204C1447.66 770.204 1451.15 767.128 1451.15 757.846C1451.15 752.775 1450.52 751.184 1447.62 748.907C1443.72 745.843 1432.9 745.065 1428.32 747.519C1425.93 748.797 1425.73 748.417 1425.73 742.571C1425.73 737.646 1426.09 736.597 1427.33 737.844C1428.23 738.743 1432.54 739.449 1437.13 739.449C1447.66 739.449 1451.15 736.373 1451.15 727.091C1451.15 722.02 1450.52 720.429 1447.62 718.152C1443.72 715.089 1432.9 714.31 1428.32 716.764C1426.03 717.989 1425.73 717.689 1425.73 714.169C1425.73 711.98 1425.28 709.91 1424.72 709.569C1424.17 709.228 1423.72 724.386 1423.72 743.253V777.558H1405.66H1387.6L1387.24 743.833L1386.89 710.109L1404.64 709.694L1422.38 709.279L1404.13 708.986C1388.55 708.737 1385.76 709.003 1385.07 710.81ZM1497.79 713.709C1497.69 716.467 1497.75 721.318 1497.92 724.49C1498.08 727.662 1497.49 732.024 1496.59 734.184C1495.15 737.661 1494.31 738.112 1489.27 738.112C1482.97 738.112 1481.95 736.617 1481.95 727.414C1481.95 717.907 1482.99 716.427 1489.33 716.931C1492.47 717.181 1494.76 716.935 1494.42 716.383C1494.08 715.831 1490.6 715.38 1486.7 715.38C1476.55 715.38 1472.55 718.746 1472.55 727.278C1472.55 736.41 1476.1 739.449 1486.75 739.449C1491.19 739.449 1495.47 738.735 1496.36 737.844C1497.61 736.597 1497.97 737.646 1497.97 742.571C1497.97 748.417 1497.77 748.797 1495.38 747.519C1490.79 745.065 1479.97 745.843 1476.07 748.907C1473.15 751.205 1472.55 752.759 1472.55 758.033C1472.55 767.164 1476.1 770.204 1486.75 770.204C1491.19 770.204 1495.47 769.489 1496.36 768.599C1497.61 767.351 1497.97 768.211 1497.97 772.467C1497.97 776.225 1498.63 778.194 1500.08 778.752C1503.48 780.053 1534.56 779.647 1536.73 778.272C1538.04 777.448 1538.57 775.364 1538.3 772.168C1537.91 767.668 1538.07 767.421 1540.58 768.759C1543.5 770.323 1555.27 770.72 1558.78 769.373C1561.51 768.324 1564.87 761.936 1564.81 757.902C1564.78 756.21 1563.85 753.322 1562.75 751.483L1560.73 748.14L1561.77 751.483C1563.48 756.996 1562.8 763.286 1560.2 766.161C1555.83 770.992 1554.82 769.487 1554.82 758.101C1554.82 748.503 1555.08 747.401 1557.16 747.947C1558.45 748.283 1559.17 748.013 1558.76 747.347C1557.85 745.878 1542.53 745.712 1541.64 747.162C1541.29 747.727 1543.43 747.959 1546.4 747.675C1549.98 747.334 1552.19 747.777 1552.96 748.988C1554.28 751.082 1554.55 763.591 1553.34 766.751C1552.35 769.34 1543.08 769.675 1541.11 767.195C1540.38 766.276 1539.36 759.01 1538.84 751.05C1537.93 736.843 1537.96 736.603 1540.59 738.013C1543.5 739.571 1555.27 739.962 1558.78 738.619C1561.51 737.569 1564.87 731.181 1564.81 727.147C1564.78 725.455 1563.85 722.567 1562.75 720.729L1560.73 717.386L1561.77 720.729C1563.48 726.242 1562.8 732.532 1560.2 735.407C1555.83 740.236 1554.82 738.727 1554.82 727.342C1554.82 717.745 1555.08 716.644 1557.16 717.192C1558.45 717.529 1559.17 717.259 1558.76 716.593C1557.85 715.123 1542.53 714.957 1541.64 716.407C1541.29 716.973 1543.43 717.204 1546.4 716.92C1553.01 716.291 1554.11 717.716 1554.13 726.971C1554.16 736.784 1553.38 738.112 1547.59 738.112C1541.12 738.112 1539.44 736.196 1539.43 728.818C1539.42 725.473 1539.04 719.576 1538.57 715.714L1537.73 708.694H1517.85H1497.97L1497.79 713.709ZM1611.21 715.714C1610.74 719.576 1610.36 725.473 1610.35 728.818C1610.34 736.196 1608.65 738.112 1602.19 738.112C1596.4 738.112 1595.62 736.784 1595.64 726.971C1595.67 717.716 1596.77 716.291 1603.38 716.92C1606.35 717.204 1608.49 716.973 1608.14 716.407C1607.19 714.872 1593.92 715.208 1591.61 716.825C1589.99 717.963 1590.11 718.089 1592.28 717.489C1594.79 716.793 1594.96 717.394 1594.96 727.431C1594.96 738.731 1593.94 740.23 1589.58 735.407C1587 732.565 1586.31 726.365 1587.94 720.729C1588.47 718.89 1587.96 719.473 1586.79 722.026C1585.07 725.802 1584.96 727.602 1586.18 731.697C1587.01 734.467 1588.84 737.343 1590.23 738.09C1593.58 739.881 1605.79 739.833 1609.19 738.013C1611.82 736.603 1611.85 736.843 1610.93 751.05C1610.42 759.01 1609.4 766.276 1608.67 767.195C1606.69 769.675 1597.43 769.34 1596.44 766.751C1595.22 763.591 1595.5 751.082 1596.82 748.988C1597.59 747.777 1599.8 747.334 1603.38 747.675C1606.35 747.959 1608.49 747.727 1608.14 747.162C1607.25 745.712 1591.93 745.878 1591.02 747.347C1590.61 748.013 1591.32 748.283 1592.61 747.947C1594.7 747.401 1594.96 748.503 1594.96 758.101C1594.96 769.487 1593.95 770.992 1589.58 766.161C1587 763.32 1586.31 757.119 1587.94 751.483C1588.47 749.645 1587.96 750.228 1586.79 752.78C1585.07 756.556 1584.96 758.356 1586.18 762.452C1587.01 765.221 1588.84 768.098 1590.23 768.845C1593.54 770.613 1605.77 770.597 1609.09 768.82C1611.44 767.56 1611.68 767.909 1611.68 772.688C1611.68 776.243 1612.36 778.202 1613.79 778.752C1616.55 779.808 1646.94 779.808 1649.69 778.752C1651.15 778.194 1651.81 776.225 1651.81 772.467C1651.81 768.211 1652.17 767.351 1653.42 768.599C1654.31 769.498 1658.63 770.204 1663.22 770.204C1673.74 770.204 1677.23 767.128 1677.23 757.846C1677.23 749.516 1673.14 746.135 1663.08 746.135C1659.18 746.135 1655.7 746.585 1655.36 747.138C1655.02 747.69 1657.31 747.936 1660.45 747.686C1666.79 747.182 1667.83 748.662 1667.83 758.169C1667.83 767.162 1666.75 768.866 1661.05 768.866C1653.49 768.866 1652.06 765.815 1652.02 749.63C1651.99 739.763 1652.37 736.796 1653.5 737.93C1654.34 738.766 1658.71 739.449 1663.22 739.449C1673.74 739.449 1677.23 736.373 1677.23 727.091C1677.23 718.762 1673.14 715.38 1663.08 715.38C1659.18 715.38 1655.7 715.831 1655.36 716.383C1655.02 716.935 1657.31 717.181 1660.45 716.931C1666.79 716.427 1667.83 717.907 1667.83 727.414C1667.83 736.617 1666.81 738.112 1660.51 738.112C1655.47 738.112 1654.62 737.658 1653.19 734.202C1652.3 732.05 1651.73 727.689 1651.92 724.507C1652.11 721.325 1652.16 716.467 1652.04 713.709L1651.81 708.694H1631.93H1612.05L1611.21 715.714ZM1536.45 743.795L1536.09 777.558H1518.03H1499.97L1499.62 743.795L1499.26 710.031H1518.03H1536.81L1536.45 743.795ZM1650.16 743.795L1649.8 777.558H1631.74H1613.68L1613.33 743.795L1612.97 710.031H1631.74H1650.52L1650.16 743.795ZM1440.94 719.726C1441.38 721.38 1441.75 724.84 1441.75 727.414C1441.75 736.658 1440.73 738.112 1434.31 738.112C1427.46 738.112 1425.73 735.924 1425.73 727.273C1425.73 719.946 1428.61 716.717 1435.14 716.717C1439.18 716.717 1440.28 717.288 1440.94 719.726ZM1447.13 719.391C1450.4 722.658 1450.71 730.88 1447.72 735.139C1443.8 740.746 1442.45 738.772 1442.45 727.414C1442.45 721.531 1442.9 716.717 1443.45 716.717C1444 716.717 1445.66 717.921 1447.13 719.391ZM1481.25 727.414C1481.25 738.772 1479.9 740.746 1475.97 735.139C1472.98 730.88 1473.29 722.658 1476.56 719.391C1478.03 717.921 1479.69 716.717 1480.24 716.717C1480.79 716.717 1481.25 721.531 1481.25 727.414ZM1673.22 719.391C1676.59 722.769 1676.86 732.149 1673.68 735.666C1669.56 740.216 1668.53 738.573 1668.53 727.412C1668.53 721.53 1668.99 716.717 1669.54 716.717C1670.09 716.717 1671.74 717.921 1673.22 719.391ZM114.715 740.117V752.82H100.668C91.9047 752.82 86.6218 752.302 86.6218 751.441C86.6218 748.416 90.9789 739.902 94.3849 736.272C98.4531 731.935 107.179 727.488 111.705 727.444C114.617 727.416 114.715 727.826 114.715 740.117ZM1382.65 749.076C1383.53 749.959 1384.26 754.051 1384.26 758.169C1384.26 762.288 1383.53 766.379 1382.65 767.262C1380.66 769.249 1371.36 769.383 1370.16 767.441C1369.67 766.656 1369.27 762.484 1369.27 758.169C1369.27 753.854 1369.67 749.682 1370.16 748.897C1371.36 746.956 1380.66 747.089 1382.65 749.076ZM1440.94 750.48C1441.38 752.135 1441.75 755.595 1441.75 758.169C1441.75 767.413 1440.73 768.866 1434.31 768.866C1427.4 768.866 1425.73 766.688 1425.73 757.684C1425.73 750.229 1428.24 747.472 1435.03 747.472C1439.19 747.472 1440.28 748.028 1440.94 750.48ZM1447.13 750.146C1450.4 753.413 1450.71 761.635 1447.72 765.894C1443.8 771.501 1442.45 769.527 1442.45 758.169C1442.45 752.286 1442.9 747.472 1443.45 747.472C1444 747.472 1445.66 748.675 1447.13 750.146ZM1481.25 758.169C1481.25 769.527 1479.9 771.501 1475.97 765.894C1472.98 761.635 1473.29 753.413 1476.56 750.146C1478.03 748.675 1479.69 747.472 1480.24 747.472C1480.79 747.472 1481.25 752.286 1481.25 758.169ZM1495.87 749.572C1498.34 752.05 1498.64 760.581 1496.41 765.461C1495.11 768.328 1493.97 768.866 1489.21 768.866C1482.98 768.866 1481.95 767.353 1481.95 758.169C1481.95 749.205 1483.04 747.472 1488.66 747.472C1491.52 747.472 1494.69 748.398 1495.87 749.572ZM1672.92 749.554C1676.54 752.089 1677.04 761.281 1673.81 765.894C1669.88 771.501 1668.53 769.528 1668.53 758.172C1668.53 752.288 1668.85 747.474 1669.24 747.473C1669.63 747.473 1671.28 748.409 1672.92 749.554ZM204.345 787.363C204.345 794.596 204.011 800.847 203.602 801.256C202.197 802.659 193.744 799.201 188.974 795.271C183.569 790.817 178.928 782.66 178.928 777.611V774.215H191.637H204.345V787.363ZM178.076 782.654C178.502 784.353 180.711 788.309 182.983 791.443C187.433 797.585 198.145 803.596 204.68 803.619L208.359 803.633V791.51V779.386L212.038 779.81L215.716 780.232L216.068 824.498L216.421 868.763L191.32 869.537C157.061 870.595 19.9849 869.851 18.7354 868.601C17.3789 867.245 17.4619 783.357 18.8211 781.235C19.6572 779.929 37.095 779.564 98.5962 779.564H177.3L178.076 782.654ZM589.623 786.249C589.623 788.791 588.73 788.924 571.563 788.924C554.395 788.924 553.503 788.791 553.503 786.249C553.503 783.708 554.395 783.575 571.563 783.575C588.73 783.575 589.623 783.708 589.623 786.249ZM562.867 827.919V863.958L557.182 863.547L551.496 863.136L551.139 828.391C550.943 809.282 551.024 793.014 551.322 792.239C551.627 791.443 554.257 791.058 557.365 791.355L562.867 791.879V827.919ZM687.28 809.067V826.364H672.564H657.849V809.204C657.849 799.765 658.098 791.793 658.401 791.487C658.704 791.181 665.326 791.118 673.117 791.349L687.28 791.771V809.067ZM699.32 827.033V863.805H693.969H688.618V827.782V791.76L693.634 791.234C696.394 790.947 698.801 790.61 698.985 790.486C699.17 790.363 699.32 806.808 699.32 827.033ZM592.298 808.981V826.364H578.252H564.205V808.981V791.598H578.252H592.298V808.981ZM607.348 792.483C606.069 792.999 605.676 801.441 605.676 828.318C605.676 857.94 605.992 863.739 607.683 865.142C609.069 866.292 609.689 866.343 609.689 865.305C609.689 864.48 609.087 863.805 608.351 863.805C607.494 863.805 607.014 851.372 607.014 829.182C607.014 798.843 607.276 794.458 609.13 793.747C610.294 793.3 618.07 792.935 626.411 792.935C634.752 792.935 642.529 793.3 643.693 793.747C645.545 794.457 645.809 798.777 645.809 828.434C645.809 849.576 645.306 862.62 644.471 863.136C643.735 863.591 643.133 864.603 643.133 865.384C643.133 866.281 643.875 866.191 645.14 865.142C646.828 863.742 647.147 858.031 647.147 829.143C647.147 804.22 646.707 794.367 645.541 793.203C643.944 791.606 611.059 790.987 607.348 792.483ZM6.35574 825.027C6.35574 844.341 6.05474 847.759 4.34908 847.759C2.64343 847.759 2.34243 844.341 2.34243 825.027C2.34243 805.713 2.64343 802.295 4.34908 802.295C6.05474 802.295 6.35574 805.713 6.35574 825.027ZM10.369 803.633C10.369 804.368 9.76705 804.97 9.03127 804.97C8.2955 804.97 7.6935 804.368 7.6935 803.633C7.6935 802.897 8.2955 802.295 9.03127 802.295C9.76705 802.295 10.369 802.897 10.369 803.633ZM15.7201 825.027C15.7201 839.291 15.2211 847.759 14.3823 847.759C13.5436 847.759 13.0446 839.291 13.0446 825.027C13.0446 810.764 13.5436 802.295 14.3823 802.295C15.2211 802.295 15.7201 810.764 15.7201 825.027ZM8.68747 834.721C8.43329 840.053 8.2246 835.691 8.2246 825.027C8.2246 814.363 8.43329 810.001 8.68747 815.333C8.9403 820.664 8.9403 829.39 8.68747 834.721ZM11.363 833.325C11.1088 838.69 10.8988 834.655 10.8975 824.358C10.8948 814.062 11.1035 809.674 11.3603 814.605C11.6158 819.538 11.6185 827.962 11.363 833.325ZM1069.03 817.231C1063.86 819.732 1061.48 830.456 1064.48 837.73C1065.25 839.59 1065.53 838.396 1065.39 833.808C1065.22 827.843 1065.52 827.12 1068.54 826.252C1071.73 825.34 1071.74 825.288 1068.88 825.161C1061.66 824.841 1068.41 817.004 1075.9 817.004C1083.39 817.004 1090.14 824.841 1082.92 825.161C1080.06 825.288 1080.08 825.34 1083.26 826.252C1086.28 827.12 1086.58 827.843 1086.41 833.808C1086.28 838.396 1086.55 839.59 1087.32 837.73C1088.93 833.816 1088.83 825.641 1087.13 821.894C1084.58 816.301 1075.69 814.009 1069.03 817.231ZM1114.95 819.911C1119.14 823.849 1118.91 826.101 1114.36 825.535C1110.77 825.089 1110.77 825.102 1114.03 826.107C1116.7 826.932 1117.46 828.149 1117.79 832.193C1118.4 839.427 1116.44 841.073 1107.22 841.073C1098.37 841.073 1096.14 838.986 1096.89 831.369C1097.2 828.207 1098.15 826.878 1100.65 826.107C1103.91 825.102 1103.9 825.089 1100.32 825.535C1094.98 826.2 1095.61 821.835 1101.32 818.602C1105.61 816.171 1111.57 816.743 1114.95 819.911ZM1208.09 818.542C1214 821.647 1214.81 826.216 1209.34 825.535C1205.76 825.089 1205.75 825.102 1209.01 826.107C1211.51 826.878 1212.46 828.207 1212.77 831.369C1213.52 838.986 1211.29 841.073 1202.44 841.073C1193.22 841.073 1191.26 839.427 1191.87 832.193C1192.2 828.149 1192.96 826.932 1195.63 826.107C1198.89 825.102 1198.89 825.089 1195.3 825.535C1190.77 826.099 1190.44 823.558 1194.55 819.731C1197.8 816.705 1203.63 816.192 1208.09 818.542ZM1460.09 819.911C1464.28 823.849 1464.05 826.101 1459.51 825.535C1455.92 825.089 1455.91 825.102 1459.17 826.107C1461.85 826.932 1462.6 828.149 1462.94 832.193C1463.54 839.427 1461.58 841.073 1452.37 841.073C1443.51 841.073 1441.29 838.986 1442.04 831.369C1442.35 828.207 1443.3 826.878 1445.79 826.107C1449.06 825.102 1449.05 825.089 1445.46 825.535C1440.93 826.099 1440.6 823.558 1444.71 819.731C1448.67 816.045 1456.07 816.132 1460.09 819.911ZM1489.03 818.542C1494.93 821.647 1495.75 826.216 1490.28 825.535C1486.69 825.089 1486.68 825.102 1489.94 826.107C1492.44 826.878 1493.39 828.207 1493.7 831.369C1494.45 838.986 1492.22 841.073 1483.37 841.073C1474.16 841.073 1472.2 839.427 1472.8 832.193C1473.13 828.149 1473.89 826.932 1476.56 826.107C1479.83 825.102 1479.82 825.089 1476.23 825.535C1471.7 826.099 1471.37 823.558 1475.48 819.731C1478.73 816.705 1484.56 816.192 1489.03 818.542ZM1180.2 822.497C1180.81 825.643 1180.51 825.94 1177.21 825.531C1173.61 825.083 1173.61 825.091 1176.9 826.136C1179.86 827.073 1180.24 827.914 1180.16 833.474C1180.11 837.083 1180.53 839.039 1181.15 838.074C1182.59 835.797 1182.37 824.991 1180.8 821.684C1179.72 819.399 1179.63 819.518 1180.2 822.497ZM1705.32 838.478C1705.32 850.67 1704.85 856.986 1703.98 856.45C1703.2 855.966 1702.65 848.191 1702.65 837.651C1702.65 826.561 1703.16 819.678 1703.98 819.678C1704.81 819.678 1705.32 826.836 1705.32 838.478ZM1074.25 824.617C1075.56 824.956 1077.36 824.933 1078.27 824.567C1079.17 824.201 1078.11 823.924 1075.9 823.951C1073.69 823.977 1072.95 824.277 1074.25 824.617ZM1105.67 824.575C1106.59 824.947 1108.09 824.947 1109.01 824.575C1109.93 824.205 1109.18 823.901 1107.34 823.901C1105.5 823.901 1104.75 824.205 1105.67 824.575ZM1137.77 824.575C1138.69 824.947 1140.2 824.947 1141.12 824.575C1142.04 824.205 1141.28 823.901 1139.45 823.901C1137.61 823.901 1136.85 824.205 1137.77 824.575ZM1168.54 824.575C1169.46 824.947 1170.97 824.947 1171.89 824.575C1172.81 824.205 1172.05 823.901 1170.21 823.901C1168.37 823.901 1167.62 824.205 1168.54 824.575ZM1200.65 824.575C1201.57 824.947 1203.07 824.947 1203.99 824.575C1204.91 824.205 1204.16 823.901 1202.32 823.901C1200.48 823.901 1199.73 824.205 1200.65 824.575ZM1387.94 824.575C1388.86 824.947 1390.36 824.947 1391.28 824.575C1392.2 824.205 1391.45 823.901 1389.61 823.901C1387.77 823.901 1387.02 824.205 1387.94 824.575ZM1418.7 824.575C1419.62 824.947 1421.13 824.947 1422.05 824.575C1422.97 824.205 1422.22 823.901 1420.38 823.901C1418.54 823.901 1417.79 824.205 1418.7 824.575ZM1450.81 824.575C1451.73 824.947 1453.24 824.947 1454.16 824.575C1455.08 824.205 1454.32 823.901 1452.48 823.901C1450.64 823.901 1449.89 824.205 1450.81 824.575ZM1481.58 824.575C1482.5 824.947 1484.01 824.947 1484.92 824.575C1485.84 824.205 1485.09 823.901 1483.25 823.901C1481.41 823.901 1480.66 824.205 1481.58 824.575ZM1161.85 825.912C1162.77 826.284 1164.28 826.284 1165.2 825.912C1166.12 825.542 1165.36 825.238 1163.53 825.238C1161.69 825.238 1160.93 825.542 1161.85 825.912ZM1425.39 825.912C1426.31 826.284 1427.82 826.284 1428.74 825.912C1429.66 825.542 1428.91 825.238 1427.07 825.238C1425.23 825.238 1424.47 825.542 1425.39 825.912ZM321.321 828.33C318.973 830.107 319.142 830.143 323.072 828.706C326.432 827.477 328.409 827.477 331.768 828.706C335.698 830.143 335.867 830.107 333.519 828.33C332.09 827.248 329.347 826.364 327.42 826.364C325.494 826.364 322.75 827.248 321.321 828.33ZM437.707 828.33C435.359 830.107 435.528 830.143 439.458 828.706C442.817 827.477 444.795 827.477 448.154 828.706C452.084 830.143 452.253 830.107 449.905 828.33C448.476 827.248 445.732 826.364 443.806 826.364C441.88 826.364 439.136 827.248 437.707 828.33ZM509.947 828.33C507.599 830.107 507.767 830.143 511.698 828.706C515.057 827.477 517.034 827.477 520.393 828.706C524.324 830.143 524.492 830.107 522.144 828.33C520.716 827.248 517.972 826.364 516.045 826.364C514.119 826.364 511.375 827.248 509.947 828.33ZM262.358 830.473C266.676 833.868 266.847 835.665 262.873 835.906L259.863 836.088L262.873 836.668C265.349 837.144 265.879 838.121 265.863 842.169C265.831 849.629 264.419 850.898 256.025 851.007C251.955 851.059 248.044 850.5 247.331 849.764C246.619 849.029 245.836 846.02 245.592 843.079L245.147 837.73L252.505 836.08L259.863 834.429L252.84 835.123C247.222 835.678 245.816 835.421 245.816 833.84C245.816 831.094 251.056 827.701 255.298 827.701C257.242 827.701 260.419 828.949 262.358 830.473ZM297.691 829.783C299.327 830.928 300.665 832.753 300.665 833.84C300.665 835.417 299.245 835.683 293.641 835.153L286.618 834.49L293.641 835.878L300.665 837.266V843.223C300.665 849.974 299.419 850.928 290.499 851.009C283.246 851.075 280.598 848.732 280.598 842.247C280.598 837.814 281.036 837.035 283.608 836.88L286.618 836.698L283.608 836.117C279.671 835.359 279.808 833.866 284.123 830.473C288.312 827.179 293.589 826.911 297.691 829.783ZM369.93 829.783C371.567 830.928 372.904 832.753 372.904 833.84C372.904 835.417 371.485 835.683 365.881 835.153L358.858 834.49L365.881 835.878L372.904 837.266V843.214C372.904 848.258 372.417 849.347 369.703 850.378C365.642 851.921 357.369 851.19 354.803 849.061C353.693 848.141 352.838 845.175 352.838 842.247C352.838 837.814 353.275 837.035 355.848 836.88L358.858 836.698L355.848 836.117C351.911 835.359 352.047 833.866 356.363 830.473C360.551 827.179 365.829 826.911 369.93 829.783ZM415.415 829.783C420.982 833.681 419.069 835.131 408.355 835.131C398.244 835.131 397.555 834.911 399.345 832.268C402.437 827.703 410.633 826.435 415.415 829.783ZM487.103 830.473C491.421 833.868 491.592 835.665 487.618 835.906L484.608 836.088L487.618 836.668C490.111 837.148 490.628 838.122 490.628 842.339C490.628 848.726 487.946 851.075 480.727 851.009C471.807 850.928 470.561 849.974 470.561 843.223V837.266L477.585 835.878L484.608 834.49L477.585 835.153C471.981 835.683 470.561 835.417 470.561 833.84C470.561 831.094 475.801 827.701 480.043 827.701C481.987 827.701 485.164 828.949 487.103 830.473ZM592.298 845.753V863.805H578.252H564.205V845.753V827.701H578.252H592.298V845.753ZM687.28 845.798V863.896L672.899 863.516L658.518 863.136L658.145 845.419L657.771 827.701H672.526H687.28V845.798ZM504.848 833.384C503.626 837.948 503.888 845.507 505.347 847.759C506.248 849.145 506.411 848.011 505.877 844.083C505.189 839.018 505.446 838.264 508.234 837.147C511.268 835.932 511.276 835.891 508.479 835.809C506.268 835.744 505.757 835.099 506.293 833.05C506.678 831.579 506.692 830.376 506.324 830.376C505.956 830.376 505.293 831.73 504.848 833.384ZM325.079 835.309C326.366 835.645 328.474 835.645 329.761 835.309C331.048 834.973 329.995 834.697 327.42 834.697C324.845 834.697 323.792 834.973 325.079 835.309ZM441.465 835.309C442.752 835.645 444.86 835.645 446.147 835.309C447.434 834.973 446.381 834.697 443.806 834.697C441.231 834.697 440.178 834.973 441.465 835.309ZM513.704 835.309C514.991 835.645 517.1 835.645 518.387 835.309C519.674 834.973 518.621 834.697 516.045 834.697C513.47 834.697 512.417 834.973 513.704 835.309ZM414.208 836.56C417.972 837.313 418.386 837.877 418.368 842.243C418.338 849.377 416.894 850.774 409.374 850.948C401.036 851.142 398.322 849.028 398.322 842.339C398.322 838.122 398.838 837.148 401.332 836.668C406.311 835.71 409.807 835.68 414.208 836.56ZM1538.99 837.953C1538.5 838.443 1538.05 840.399 1537.99 842.299C1537.94 844.198 1537.59 845.002 1537.21 844.082C1536.84 843.163 1535.55 842.41 1534.35 842.41C1532.65 842.41 1532.83 842.879 1535.13 844.492C1537.57 846.2 1538.1 847.851 1538.1 853.688C1538.1 861.791 1536.55 863.767 1529.44 864.725C1525.32 865.28 1524.57 864.921 1523.39 861.82C1521.67 857.281 1521.67 850.253 1523.41 845.689C1524.5 842.823 1525.44 842.235 1528.09 842.742C1529.92 843.091 1531.41 842.858 1531.41 842.224C1531.41 841.592 1529.14 841.073 1526.36 841.073C1521.65 841.073 1515.99 843.73 1513.71 847.013C1512.14 849.264 1512.61 858.92 1514.4 861.247C1518.21 866.208 1527.27 867.985 1534.59 865.205C1537.7 864.024 1537.97 864.243 1538.35 868.213L1538.77 872.496L1552.7 872.88C1560.63 873.098 1567.2 872.695 1567.95 871.944C1568.68 871.218 1569.22 866.01 1569.16 860.368C1569.02 846.836 1570.08 844.32 1576.4 843.135C1580.42 842.381 1581.81 842.671 1583.19 844.56C1585.01 847.05 1585.48 856.898 1584.04 862.286C1583.27 865.154 1582.64 865.383 1577.19 864.769C1573.48 864.352 1571.89 864.541 1573.04 865.265C1576.65 867.555 1590.27 866.241 1590.27 863.601C1590.27 862.865 1589.34 862.874 1587.93 863.626C1585.79 864.771 1585.59 863.936 1585.59 853.776C1585.59 844.066 1585.86 842.815 1587.71 843.806C1592.15 846.181 1593.3 849.006 1592.63 855.902C1592.25 859.863 1592.45 861.95 1593.11 860.91C1593.74 859.928 1594.25 856.401 1594.27 853.07C1594.29 844.911 1590.77 841.766 1581.58 841.751C1577.9 841.746 1573.53 842.234 1571.88 842.834C1569.26 843.787 1568.87 843.487 1568.87 840.494V837.061L1555.16 837.341L1541.44 837.622L1554.49 838.059L1567.53 838.495V854.493V870.49H1553.41H1539.29L1539.7 853.773C1539.92 844.579 1540.06 837.057 1540 837.059C1539.93 837.06 1539.48 837.463 1538.99 837.953ZM1658.5 854.491V870.584L1644.79 870.203L1631.08 869.822L1630.7 854.11L1630.32 838.399H1644.41H1658.5V854.491ZM1226.93 844.525C1227.37 845.689 1227.74 851.055 1227.74 856.45C1227.74 861.846 1227.37 867.212 1226.93 868.375C1226.2 870.274 1217.35 870.49 1140.64 870.49H1055.17V856.45V842.41H1140.64C1217.35 842.41 1226.2 842.627 1226.93 844.525ZM1506.52 844.525C1507.57 847.271 1507.57 865.63 1506.52 868.375C1505.79 870.266 1498.41 870.49 1436.96 870.49H1368.2V857.342C1368.2 850.109 1368.61 843.791 1369.1 843.302C1369.59 842.811 1400.52 842.41 1437.85 842.41C1498.49 842.41 1505.79 842.635 1506.52 844.525ZM1521.38 853.649C1521.38 860.745 1520.88 864.612 1520.04 864.142C1515.53 861.63 1514.02 859.011 1514.02 853.666C1514.02 849.087 1514.72 847.403 1517.55 845.182C1519.48 843.658 1521.14 842.41 1521.22 842.41C1521.31 842.41 1521.38 847.467 1521.38 853.649ZM10.369 846.422C10.369 847.157 9.76705 847.759 9.03127 847.759C8.2955 847.759 7.6935 847.157 7.6935 846.422C7.6935 845.686 8.2955 845.084 9.03127 845.084C9.76705 845.084 10.369 845.686 10.369 846.422ZM1323.01 856.113C1322.32 871.686 1323.96 870.49 1303.3 870.49H1285.26V860.016C1285.26 854.255 1285.66 849.14 1286.15 848.651C1286.64 848.16 1295.22 847.757 1305.22 847.756L1323.39 847.753L1323.01 856.113ZM1283.92 859.793V870.49H1259.84H1235.76V859.793V849.096H1259.84H1283.92V859.793ZM1294.96 851.425C1299.93 851.682 1308.06 851.682 1313.02 851.425C1317.99 851.167 1313.92 850.957 1303.99 850.957C1294.06 850.957 1290 851.167 1294.96 851.425ZM1356.16 859.793V869.153H1340.57C1325.39 869.153 1325.04 869.088 1327.26 866.637C1329.89 863.734 1328.96 857.119 1325.92 857.119C1324.83 857.119 1324.06 855.74 1324.06 853.776V850.433H1340.11H1356.16V859.793ZM382.269 861.811V870.513L309.026 870.168L235.783 869.822L235.368 863.306C235.141 859.722 235.272 855.961 235.661 854.949C236.25 853.416 248.603 853.107 309.319 853.107H382.269V861.811ZM534.774 861.799V870.49H461.866H388.957V861.799V853.107H461.866H534.774V861.799ZM1296.35 854.1C1301.35 854.358 1309.18 854.356 1313.75 854.096C1318.31 853.836 1314.22 853.625 1304.66 853.628C1295.09 853.629 1291.36 853.843 1296.35 854.1ZM1294.96 858.111C1299.93 858.368 1308.06 858.368 1313.02 858.111C1317.99 857.853 1313.92 857.643 1303.99 857.643C1294.06 857.643 1290 857.853 1294.96 858.111ZM1326.47 863.458C1324.48 865.848 1323.61 864.632 1324.75 861.054C1325.46 858.81 1325.95 858.535 1326.8 859.905C1327.44 860.942 1327.3 862.454 1326.47 863.458ZM1294.96 862.123C1299.93 862.379 1308.06 862.379 1313.02 862.123C1317.99 861.864 1313.92 861.655 1303.99 861.655C1294.06 861.655 1290 861.864 1294.96 862.123ZM1294.96 864.797C1299.93 865.054 1308.06 865.054 1313.02 864.797C1317.99 864.539 1313.92 864.329 1303.99 864.329C1294.06 864.329 1290 864.539 1294.96 864.797ZM589.623 867.816C589.623 870.358 588.73 870.49 571.563 870.49C554.395 870.49 553.503 870.358 553.503 867.816C553.503 865.274 554.395 865.142 571.563 865.142C588.73 865.142 589.623 865.274 589.623 867.816ZM697.729 868.15C698.14 870.29 696.561 870.49 679.351 870.49C661.328 870.49 660.524 870.374 660.524 867.779C660.524 865.167 661.209 865.08 678.903 865.439C695.169 865.768 697.332 866.079 697.729 868.15ZM829.083 867.816C829.083 868.661 819.495 869.153 802.997 869.153C786.498 869.153 776.91 868.661 776.91 867.816C776.91 866.971 786.498 866.479 802.997 866.479C819.495 866.479 829.083 866.971 829.083 867.816ZM977.576 867.816C977.576 868.661 967.988 869.153 951.489 869.153C934.99 869.153 925.403 868.661 925.403 867.816C925.403 866.971 934.99 866.479 951.489 866.479C967.988 866.479 977.576 866.971 977.576 867.816ZM1295.02 868.808C1300.01 869.066 1307.84 869.065 1312.41 868.804C1316.98 868.545 1312.89 868.334 1303.32 868.336C1293.76 868.338 1290.02 868.552 1295.02 868.808ZM92.9776 874.168C93.4083 875.461 88.3676 875.839 70.6797 875.839C51.0961 875.839 47.8266 875.548 47.8266 873.801C47.8266 872.042 50.878 871.813 70.1245 872.13C86.5054 872.399 92.5696 872.94 92.9776 874.168ZM186.621 874.168C187.052 875.461 182.011 875.839 164.323 875.839C144.74 875.839 141.47 875.548 141.47 873.801C141.47 872.042 144.522 871.813 163.768 872.13C180.149 872.399 186.213 872.94 186.621 874.168ZM362.202 874.502C362.202 875.372 342.804 875.839 306.685 875.839C270.565 875.839 251.167 875.372 251.167 874.502C251.167 873.631 270.565 873.165 306.685 873.165C342.804 873.165 362.202 873.631 362.202 874.502ZM517.383 874.502C517.383 875.372 497.762 875.839 461.197 875.839C424.632 875.839 405.011 875.372 405.011 874.502C405.011 873.631 424.632 873.165 461.197 873.165C497.762 873.165 517.383 873.631 517.383 874.502ZM1214.36 874.502C1214.36 875.378 1188.27 875.839 1138.78 875.839C1089.28 875.839 1063.19 875.378 1063.19 874.502C1063.19 873.626 1089.28 873.165 1138.78 873.165C1188.27 873.165 1214.36 873.626 1214.36 874.502ZM1500.64 874.502C1500.64 875.375 1478.35 875.839 1436.43 875.839C1394.51 875.839 1372.22 875.375 1372.22 874.502C1372.22 873.629 1394.51 873.165 1436.43 873.165C1478.35 873.165 1500.64 873.629 1500.64 874.502ZM1700.89 880.853C1700.56 882.14 1700.28 881.087 1700.28 878.513C1700.28 875.939 1700.56 874.887 1700.89 876.173C1701.23 877.46 1701.23 879.567 1700.89 880.853ZM48.7402 880.102C48.3135 881.168 47.9964 880.851 47.9322 879.293C47.8747 877.884 48.1904 877.095 48.6346 877.539C49.0787 877.983 49.1269 879.137 48.7402 880.102ZM80.2674 878.17C74.9338 878.422 66.2035 878.422 60.8698 878.17C55.5361 877.916 59.8999 877.707 70.5686 877.707C81.2373 877.707 85.6011 877.916 80.2674 878.17ZM93.3107 879.182C93.3107 880.285 92.7087 881.188 91.9729 881.188C91.2371 881.188 90.6351 880.285 90.6351 879.182C90.6351 878.079 91.2371 877.176 91.9729 877.176C92.7087 877.176 93.3107 878.079 93.3107 879.182ZM143.419 878.421C143.844 879.106 143.577 880.043 142.83 880.506C142.082 880.967 141.47 880.407 141.47 879.261C141.47 876.912 142.273 876.567 143.419 878.421ZM173.911 878.17C168.576 878.422 159.849 878.422 154.514 878.17C149.179 877.916 153.544 877.707 164.212 877.707C174.881 877.707 179.246 877.916 173.911 878.17ZM186.954 879.182C186.954 880.285 186.352 881.188 185.617 881.188C184.881 881.188 184.279 880.285 184.279 879.182C184.279 878.079 184.881 877.176 185.617 877.176C186.352 877.176 186.954 878.079 186.954 879.182ZM252.081 880.102C251.654 881.168 251.337 880.851 251.273 879.293C251.215 877.884 251.531 877.095 251.975 877.539C252.42 877.983 252.468 879.137 252.081 880.102ZM332.348 878.178C317.768 878.394 294.29 878.393 280.176 878.176C266.061 877.961 277.99 877.783 306.685 877.785C335.38 877.785 346.929 877.961 332.348 878.178ZM361.778 880.102C361.351 881.168 361.034 880.851 360.97 879.293C360.913 877.884 361.228 877.095 361.672 877.539C362.117 877.983 362.165 879.137 361.778 880.102ZM407.686 879.182C407.686 880.285 407.084 881.188 406.348 881.188C405.613 881.188 405.011 880.285 405.011 879.182C405.011 878.079 405.613 877.176 406.348 877.176C407.084 877.176 407.686 878.079 407.686 879.182ZM487.618 878.178C473.086 878.393 449.307 878.393 434.776 878.178C420.244 877.961 432.134 877.785 461.197 877.785C490.26 877.785 502.15 877.961 487.618 878.178ZM517.383 879.182C517.383 880.285 516.781 881.188 516.045 881.188C515.31 881.188 514.708 880.285 514.708 879.182C514.708 878.079 515.31 877.176 516.045 877.176C516.781 877.176 517.383 878.079 517.383 879.182ZM1065.14 878.421C1065.57 879.106 1065.3 880.043 1064.55 880.506C1063.8 880.967 1063.19 880.407 1063.19 879.261C1063.19 876.912 1064 876.567 1065.14 878.421ZM1174.47 878.178C1154.37 878.386 1121.86 878.386 1102.23 878.178C1082.6 877.969 1099.04 877.799 1138.78 877.799C1178.51 877.799 1194.57 877.971 1174.47 878.178ZM1214.36 879.261C1214.36 880.407 1213.75 880.967 1213 880.506C1212.25 880.043 1211.99 879.106 1212.41 878.421C1213.56 876.567 1214.36 876.912 1214.36 879.261ZM1373.13 880.102C1372.7 881.168 1372.39 880.851 1372.32 879.293C1372.27 877.884 1372.58 877.095 1373.03 877.539C1373.47 877.983 1373.52 879.137 1373.13 880.102ZM1466.86 878.178C1450.12 878.39 1422.74 878.39 1406 878.178C1389.26 877.965 1402.95 877.793 1436.43 877.793C1469.91 877.793 1483.6 877.965 1466.86 878.178ZM1500.22 880.102C1499.79 881.168 1499.48 880.851 1499.41 879.293C1499.35 877.884 1499.67 877.095 1500.11 877.539C1500.56 877.983 1500.61 879.137 1500.22 880.102ZM1524 878.421C1524.42 879.106 1524.15 880.043 1523.41 880.506C1522.66 880.967 1522.05 880.407 1522.05 879.261C1522.05 876.912 1522.85 876.567 1524 878.421ZM1633.32 878.178C1613.22 878.386 1580.71 878.386 1561.08 878.178C1541.45 877.969 1557.9 877.799 1597.63 877.799C1637.36 877.799 1653.42 877.971 1633.32 878.178ZM1673.22 879.261C1673.22 880.407 1672.6 880.967 1671.86 880.506C1671.11 880.043 1670.84 879.106 1671.27 878.421C1672.41 876.567 1673.22 876.912 1673.22 879.261ZM80.2674 880.844C74.9338 881.097 66.2035 881.097 60.8698 880.844C55.5361 880.59 59.8999 880.381 70.5686 880.381C81.2373 880.381 85.6011 880.59 80.2674 880.844ZM173.911 880.844C168.576 881.097 159.849 881.097 154.514 880.844C149.179 880.59 153.544 880.381 164.212 880.381C174.881 880.381 179.246 880.59 173.911 880.844ZM332.348 880.852C317.768 881.069 294.29 881.067 280.176 880.851C266.061 880.635 277.99 880.458 306.685 880.459C335.38 880.459 346.929 880.636 332.348 880.852ZM487.618 880.852C473.086 881.067 449.307 881.067 434.776 880.852C420.244 880.636 432.134 880.459 461.197 880.459C490.26 880.459 502.15 880.636 487.618 880.852ZM1174.47 880.852C1154.37 881.061 1121.86 881.061 1102.23 880.852C1082.6 880.644 1099.04 880.474 1138.78 880.474C1178.51 880.474 1194.57 880.645 1174.47 880.852ZM1468.29 880.852C1451.61 881.063 1423.91 881.065 1406.76 880.852C1389.6 880.641 1403.25 880.467 1437.1 880.467C1470.94 880.467 1484.98 880.64 1468.29 880.852ZM1633.32 880.852C1613.22 881.061 1580.71 881.061 1561.08 880.852C1541.45 880.644 1557.9 880.474 1597.63 880.474C1637.36 880.474 1653.42 880.645 1633.32 880.852ZM92.9776 884.196C92.5696 885.424 86.5054 885.965 70.1245 886.234C50.878 886.551 47.8266 886.322 47.8266 884.563C47.8266 882.816 51.0961 882.525 70.6797 882.525C88.3676 882.525 93.4083 882.903 92.9776 884.196ZM186.621 884.196C186.213 885.424 180.149 885.965 163.768 886.234C144.522 886.551 141.47 886.322 141.47 884.563C141.47 882.816 144.74 882.525 164.323 882.525C182.011 882.525 187.052 882.903 186.621 884.196ZM362.202 884.531C362.202 886.281 355.141 886.536 306.685 886.536C258.228 886.536 251.167 886.281 251.167 884.531C251.167 882.78 258.228 882.525 306.685 882.525C355.141 882.525 362.202 882.78 362.202 884.531ZM517.383 884.545C517.383 886.321 510.632 886.523 461.642 886.217C418.49 885.947 405.776 885.491 405.345 884.196C404.905 882.877 416.643 882.525 461.086 882.525C510.417 882.525 517.383 882.775 517.383 884.545ZM1214.36 884.531C1214.36 886.29 1205.07 886.536 1138.78 886.536C1072.48 886.536 1063.19 886.29 1063.19 884.531C1063.19 882.771 1072.48 882.525 1138.78 882.525C1205.07 882.525 1214.36 882.771 1214.36 884.531ZM1500.64 884.531C1500.64 886.286 1492.62 886.536 1436.43 886.536C1380.24 886.536 1372.22 886.286 1372.22 884.531C1372.22 882.776 1380.24 882.525 1436.43 882.525C1492.62 882.525 1500.64 882.776 1500.64 884.531ZM1673.22 884.531C1673.22 886.29 1663.93 886.536 1597.63 886.536C1531.34 886.536 1522.05 886.29 1522.05 884.531C1522.05 882.771 1531.34 882.525 1597.63 882.525C1663.93 882.525 1673.22 882.771 1673.22 884.531Z" fill="#393129"/>
</svg>
